<svg viewBox="0 0 1183.0078125 400" xmlns="http://www.w3.org/2000/svg"><g><g><g><g><g><line x1="46.9375" y1="374" x2="41.9375" y2="374" style="visibility: inherit;" fill="rgb(0, 0, 0)" stroke="rgb(204, 204, 204)" stroke-width="1px"></line><line x1="46.9375" y1="340" x2="41.9375" y2="340" style="visibility: inherit;" fill="rgb(0, 0, 0)" stroke="rgb(204, 204, 204)" stroke-width="1px"></line><line x1="46.9375" y1="306" x2="41.9375" y2="306" style="visibility: inherit;" fill="rgb(0, 0, 0)" stroke="rgb(204, 204, 204)" stroke-width="1px"></line><line x1="46.9375" y1="272" x2="41.9375" y2="272" style="visibility: inherit;" fill="rgb(0, 0, 0)" stroke="rgb(204, 204, 204)" stroke-width="1px"></line><line x1="46.9375" y1="238.00000000000003" x2="41.9375" y2="238.00000000000003" style="visibility: inherit;" fill="rgb(0, 0, 0)" stroke="rgb(204, 204, 204)" stroke-width="1px"></line><line x1="46.9375" y1="203.99999999999997" x2="41.9375" y2="203.99999999999997" style="visibility: inherit;" fill="rgb(0, 0, 0)" stroke="rgb(204, 204, 204)" stroke-width="1px"></line><line x1="46.9375" y1="169.99999999999997" x2="41.9375" y2="169.99999999999997" style="visibility: inherit;" fill="rgb(0, 0, 0)" stroke="rgb(204, 204, 204)" stroke-width="1px"></line><line x1="46.9375" y1="136.00000000000006" x2="41.9375" y2="136.00000000000006" style="visibility: inherit;" fill="rgb(0, 0, 0)" stroke="rgb(204, 204, 204)" stroke-width="1px"></line><line x1="46.9375" y1="102" x2="41.9375" y2="102" style="visibility: inherit;" fill="rgb(0, 0, 0)" stroke="rgb(204, 204, 204)" stroke-width="1px"></line><line x1="46.9375" y1="68" x2="41.9375" y2="68" style="visibility: inherit;" fill="rgb(0, 0, 0)" stroke="rgb(204, 204, 204)" stroke-width="1px"></line><line x1="46.9375" y1="34" x2="41.9375" y2="34" style="visibility: inherit;" fill="rgb(0, 0, 0)" stroke="rgb(204, 204, 204)" stroke-width="1px"></line><line x1="46.9375" y1="0" x2="41.9375" y2="0" style="visibility: inherit;" fill="rgb(0, 0, 0)" stroke="rgb(204, 204, 204)" stroke-width="1px"></line></g><g transform="translate(36.9375, 0)"><text x="0" y="374" dx="0em" dy="0.3em" style="text-anchor: end; visibility: hidden; font-family: &quot;Helvetica Neue&quot;, sans-serif; font-size: 12.5px; font-weight: 200;" fill="rgb(50, 49, 63)" stroke="none" stroke-width="1px">0.08</text><text x="0" y="340" dx="0em" dy="0.3em" style="text-anchor: end; visibility: inherit; font-family: &quot;Helvetica Neue&quot;, sans-serif; font-size: 12.5px; font-weight: 200;" fill="rgb(50, 49, 63)" stroke="none" stroke-width="1px">0.09</text><text x="0" y="306" dx="0em" dy="0.3em" style="text-anchor: end; visibility: inherit; font-family: &quot;Helvetica Neue&quot;, sans-serif; font-size: 12.5px; font-weight: 200;" fill="rgb(50, 49, 63)" stroke="none" stroke-width="1px">0.1</text><text x="0" y="272" dx="0em" dy="0.3em" style="text-anchor: end; visibility: inherit; font-family: &quot;Helvetica Neue&quot;, sans-serif; font-size: 12.5px; font-weight: 200;" fill="rgb(50, 49, 63)" stroke="none" stroke-width="1px">0.11</text><text x="0" y="238.00000000000003" dx="0em" dy="0.3em" style="text-anchor: end; visibility: inherit; font-family: &quot;Helvetica Neue&quot;, sans-serif; font-size: 12.5px; font-weight: 200;" fill="rgb(50, 49, 63)" stroke="none" stroke-width="1px">0.12</text><text x="0" y="203.99999999999997" dx="0em" dy="0.3em" style="text-anchor: end; visibility: inherit; font-family: &quot;Helvetica Neue&quot;, sans-serif; font-size: 12.5px; font-weight: 200;" fill="rgb(50, 49, 63)" stroke="none" stroke-width="1px">0.13</text><text x="0" y="169.99999999999997" dx="0em" dy="0.3em" style="text-anchor: end; visibility: inherit; font-family: &quot;Helvetica Neue&quot;, sans-serif; font-size: 12.5px; font-weight: 200;" fill="rgb(50, 49, 63)" stroke="none" stroke-width="1px">0.14</text><text x="0" y="136.00000000000006" dx="0em" dy="0.3em" style="text-anchor: end; visibility: inherit; font-family: &quot;Helvetica Neue&quot;, sans-serif; font-size: 12.5px; font-weight: 200;" fill="rgb(50, 49, 63)" stroke="none" stroke-width="1px">0.15</text><text x="0" y="102" dx="0em" dy="0.3em" style="text-anchor: end; visibility: inherit; font-family: &quot;Helvetica Neue&quot;, sans-serif; font-size: 12.5px; font-weight: 200;" fill="rgb(50, 49, 63)" stroke="none" stroke-width="1px">0.16</text><text x="0" y="68" dx="0em" dy="0.3em" style="text-anchor: end; visibility: inherit; font-family: &quot;Helvetica Neue&quot;, sans-serif; font-size: 12.5px; font-weight: 200;" fill="rgb(50, 49, 63)" stroke="none" stroke-width="1px">0.17</text><text x="0" y="34" dx="0em" dy="0.3em" style="text-anchor: end; visibility: inherit; font-family: &quot;Helvetica Neue&quot;, sans-serif; font-size: 12.5px; font-weight: 200;" fill="rgb(50, 49, 63)" stroke="none" stroke-width="1px">0.18</text><text x="0" y="0" dx="0em" dy="0.3em" style="text-anchor: end; visibility: hidden; font-family: &quot;Helvetica Neue&quot;, sans-serif; font-size: 12.5px; font-weight: 200;" fill="rgb(50, 49, 63)" stroke="none" stroke-width="1px">0.19</text></g><line x1="46.9375" y1="0" x2="46.9375" y2="374" fill="rgb(0, 0, 0)" stroke="rgb(204, 204, 204)" stroke-width="1px"></line></g></g><g transform="translate(46, 0)" clip-path="url(#clip_0)"><clipPath id="clip_0"><rect width="1136" height="373"></rect></clipPath><g><g><g><line x1="0" y1="0" x2="0" y2="374" fill="rgb(0, 0, 0)" stroke="rgb(60, 60, 60)" stroke-width="1px" opacity="0.25"></line><line x1="94.67270833333333" y1="0" x2="94.67270833333333" y2="374" fill="rgb(0, 0, 0)" stroke="rgb(60, 60, 60)" stroke-width="1px" opacity="0.25"></line><line x1="189.34541666666667" y1="0" x2="189.34541666666667" y2="374" fill="rgb(0, 0, 0)" stroke="rgb(60, 60, 60)" stroke-width="1px" opacity="0.25"></line><line x1="284.018125" y1="0" x2="284.018125" y2="374" fill="rgb(0, 0, 0)" stroke="rgb(60, 60, 60)" stroke-width="1px" opacity="0.25"></line><line x1="378.69083333333333" y1="0" x2="378.69083333333333" y2="374" fill="rgb(0, 0, 0)" stroke="rgb(60, 60, 60)" stroke-width="1px" opacity="0.25"></line><line x1="473.36354166666666" y1="0" x2="473.36354166666666" y2="374" fill="rgb(0, 0, 0)" stroke="rgb(60, 60, 60)" stroke-width="1px" opacity="0.25"></line><line x1="568.03625" y1="0" x2="568.03625" y2="374" fill="rgb(0, 0, 0)" stroke="rgb(60, 60, 60)" stroke-width="1px" opacity="0.25"></line><line x1="662.7089583333334" y1="0" x2="662.7089583333334" y2="374" fill="rgb(0, 0, 0)" stroke="rgb(60, 60, 60)" stroke-width="1px" opacity="0.25"></line><line x1="757.3816666666667" y1="0" x2="757.3816666666667" y2="374" fill="rgb(0, 0, 0)" stroke="rgb(60, 60, 60)" stroke-width="1px" opacity="0.25"></line><line x1="852.0543749999999" y1="0" x2="852.0543749999999" y2="374" fill="rgb(0, 0, 0)" stroke="rgb(60, 60, 60)" stroke-width="1px" opacity="0.25"></line><line x1="946.7270833333333" y1="0" x2="946.7270833333333" y2="374" fill="rgb(0, 0, 0)" stroke="rgb(60, 60, 60)" stroke-width="1px" opacity="0.25"></line><line x1="1041.3997916666667" y1="0" x2="1041.3997916666667" y2="374" fill="rgb(0, 0, 0)" stroke="rgb(60, 60, 60)" stroke-width="1px" opacity="0.25"></line><line x1="1136.0725" y1="0" x2="1136.0725" y2="374" fill="rgb(0, 0, 0)" stroke="rgb(60, 60, 60)" stroke-width="1px" opacity="0.25"></line></g><g><line x1="0" y1="374" x2="1136.0725" y2="374" fill="rgb(0, 0, 0)" stroke="rgb(60, 60, 60)" stroke-width="1px" opacity="0.25"></line><line x1="0" y1="340" x2="1136.0725" y2="340" fill="rgb(0, 0, 0)" stroke="rgb(60, 60, 60)" stroke-width="1px" opacity="0.25"></line><line x1="0" y1="306" x2="1136.0725" y2="306" fill="rgb(0, 0, 0)" stroke="rgb(60, 60, 60)" stroke-width="1px" opacity="0.25"></line><line x1="0" y1="272" x2="1136.0725" y2="272" fill="rgb(0, 0, 0)" stroke="rgb(60, 60, 60)" stroke-width="1px" opacity="0.25"></line><line x1="0" y1="238.00000000000003" x2="1136.0725" y2="238.00000000000003" fill="rgb(0, 0, 0)" stroke="rgb(60, 60, 60)" stroke-width="1px" opacity="0.25"></line><line x1="0" y1="203.99999999999997" x2="1136.0725" y2="203.99999999999997" fill="rgb(0, 0, 0)" stroke="rgb(60, 60, 60)" stroke-width="1px" opacity="0.25"></line><line x1="0" y1="169.99999999999997" x2="1136.0725" y2="169.99999999999997" fill="rgb(0, 0, 0)" stroke="rgb(60, 60, 60)" stroke-width="1px" opacity="0.25"></line><line x1="0" y1="136.00000000000006" x2="1136.0725" y2="136.00000000000006" fill="rgb(0, 0, 0)" stroke="rgb(60, 60, 60)" stroke-width="1px" opacity="0.25"></line><line x1="0" y1="102" x2="1136.0725" y2="102" fill="rgb(0, 0, 0)" stroke="rgb(60, 60, 60)" stroke-width="1px" opacity="0.25"></line><line x1="0" y1="68" x2="1136.0725" y2="68" fill="rgb(0, 0, 0)" stroke="rgb(60, 60, 60)" stroke-width="1px" opacity="0.25"></line><line x1="0" y1="34" x2="1136.0725" y2="34" fill="rgb(0, 0, 0)" stroke="rgb(60, 60, 60)" stroke-width="1px" opacity="0.25"></line><line x1="0" y1="0" x2="1136.0725" y2="0" fill="rgb(0, 0, 0)" stroke="rgb(60, 60, 60)" stroke-width="1px" opacity="0.25"></line></g></g></g><g><g><line x1="0" y1="646" x2="1136.0725" y2="646" fill="rgb(0, 0, 0)" stroke="rgb(153, 153, 153)" stroke-width="1.5px"></line></g></g><g><g><line x1="94.67270833333333" y1="0" x2="94.67270833333333" y2="374" fill="rgb(0, 0, 0)" stroke="rgb(153, 153, 153)" stroke-width="1.5px"></line></g></g><g><g><g><g><g><path stroke="rgb(255, 112, 67)" stroke-width="2px" d="M95.486893625,35.47515785694122L95.54369725,-23.958340889549106L96.03599533333333,-15.96475161592042L96.47148979166667,45.99595185955309L97.85371133333334,57.25289227361725L99.02765291666667,25.274786602380402L99.12232562499999,-0.03220237309534468L108.36238195833333,-13.57511975440815L109.55525808333333,17.397108123486248L109.87714529166668,29.082196311258656L109.99075254166667,-5.994555334243728L113.07708283333334,-0.6573472287633422L113.89126812500001,22.267178372332125L114.87586429166666,18.522064682205155L115.59537687499999,28.60311868046199L117.03440204166667,14.547625297056868L118.56809991666667,11.034992330177715L119.60949970833335,15.337369057199453L119.66630333333333,18.98438886014975L119.93138691666667,28.148526054020635L120.00712508333332,12.194756822958254L120.91598308333334,1.8305687993482707L121.04852487500001,10.388568503991962L121.88164470833333,29.137586869695156L122.44968095833333,26.54883141428286L123.52894983333333,17.954514570125127L124.07805154166667,-1.1314802129829218L124.38100420833334,9.196660523298533L124.68395687499999,12.849753682069945L126.70995283333333,24.322985875983363L127.52413812500001,10.669285459039088L127.58094175,19.83294514745944L129.60693770833333,27.63105339324028L130.023497625,52.03577948314529L130.23177758333333,67.53718099341955L130.98915925,78.20022124207662L131.5571955,87.1459252828297L133.24236970833334,99.25293972650275L134.37844220833333,99.92412691681915L136.1014855,103.51394511513286L136.3287,83.63061771277256L136.93460533333334,89.04683239655435L137.521576125,91.28559295962941L138.37363050000002,97.8157441192617L139.92626291666664,104.28402020688901L140.816186375,122.85353095492601L141.13807358333332,103.0420779441979L141.17594266666666,105.64210236481864L141.270615375,114.81481065010593L141.74397891666666,112.62740850311451L141.76291345833332,119.95570143602615L141.99012795833335,110.1813119033302L142.08480066666667,105.890483004143L142.633902375,119.83512214961397L145.53088724999998,117.50258800376469L146.57228704166667,118.80932940729875L150.870428,116.97903704870726L152.21478045833334,112.11436249979477L152.27158408333332,121.35918016839398L154.54372908333335,116.94024117781959L155.85021245833332,107.91688684032778L156.11529604166665,112.22422858893077L156.153165125,116.75983846225097L156.17209966666664,106.05315091649697L157.27030308333332,98.72194702587586L160.583847875,99.45611177902555L163.196814625,114.76649138788218L163.23468370833334,107.18314437225422L164.18141079166665,121.6716976328274L165.52576324999998,110.54532260372798L166.90798479166668,118.7931576118217L167.04052658333333,118.9968137807424L169.06652254166667,130.97831353812543L169.59668970833332,137.98932234083262L170.126856875,155.04636568680598L171.11145304166666,164.45501867435797L172.285394625,164.53494393587684L174.14097970833333,153.37085929616998L174.7279505,149.60235421483623L174.82262320833334,150.54693754361773L176.43205924999998,161.62652845879592L176.4699283333333,147.19424812949288L178.00362620833334,148.750163645626L179.74560404166667,150.14118029612214L180.06749125,153.814302300417L180.46511662499998,161.43789915274917L183.00234520833334,144.98879199711394L183.07808337499998,135.77034440247445L183.22955970833334,133.67722200768378L185.350228375,130.41488659887418L185.61531195833334,120.52538331681791L186.33482454166668,111.21056977175482L186.56203904166668,112.05998229669808L187.35728979166666,111.0425994493794L188.8152495,113.77159886487391L190.31107829166666,115.45429654733806L190.348947375,128.39298815345472L191.37141262499998,145.60867240941306L191.90157979166665,142.90072149275863L195.8967680833333,133.40303886219328L196.16185166666665,143.74128457696756L197.3168587083333,126.86329005824106L199.75941458333335,140.7529828498097L202.220905,139.518168308635L203.05402483333333,142.62443945364333L204.663460875,139.7188865933763L205.04215170833334,144.05571945857616L205.72379520833334,147.47155220203828L205.856337,132.4963766101447L206.53798049999997,144.04276044542343L206.935605875,156.94024618505398L208.10954745833334,154.66236994040935L208.48823829166665,146.56740676894924L210.58997241666668,141.3434217604575L210.77931783333332,146.1270762458302L212.08580120833335,136.07811075984483L212.33195025,124.03066055733333L212.4455575,126.61515174731736L213.7709754166667,124.23439448578719L214.20646987499998,125.755234654015L215.41828054166666,129.76677969250053L218.14485454166666,133.42717064596633L219.16731979166664,134.74633932926136L219.7164215,139.75170832289584L220.73888675,141.96399725102788L221.477333875,138.00701215799617L221.5341375,139.0381071197291L221.76135200000002,130.84596226824343L222.34832279166667,146.32751656621735L224.46899145833333,139.5131977873584L226.589660125,146.14466577745762L227.08195820833333,150.28063676963208L229.24049595833336,155.19275649598652L229.39197229166666,147.17174344874084L230.1682885,159.93532207194752L231.91026633333334,162.70191351821106L233.122077,162.3573665182134L234.03093499999997,127.11827893461228L234.46642945833332,123.73557807668806L235.75397829166664,113.8598549212424L235.94332370833334,113.36072644510489L236.00012733333332,122.61677311418879L236.2841454583333,140.24951256146397L236.9089853333333,151.58710273301833L240.35507191666665,157.77922423418653L241.62368620833334,161.70424878012932L242.153853375,166.94435532711498L242.34319879166665,177.68315890509754L243.00590775,192.50479360239083L245.9975653333333,189.0400945200185L247.4176559583333,190.48893763682915L249.57619370833334,192.7644520367242L250.35250991666666,189.90371785749446L253.04121483333333,186.6092768545746L253.13588754166665,193.22017058731916L253.30629841666666,197.2471879404443L255.06721079166667,203.44788371687835L255.59737795833334,208.6294724946539L255.78672337499998,214.29876404828954L257.54763575000004,209.0297067218891L258.1914101666667,204.85571934094352L259.3274826666667,209.40417788355865L262.79250379166666,214.8759305807709L263.284801875,213.82343712531218L263.3416055,215.29442600125537L263.739230875,217.46114850366283L263.8717726666667,214.4911818398522L264.96997608333334,210.9458914257027L265.0835833333333,216.12829540484694L266.14391766666665,215.31137909549753L270.0254987083333,210.47066473818143L271.08583304166666,215.1621692930663L271.691738375,226.2514856871891L273.3390435,224.89535651558688L273.963883375,218.79875312894555L275.45971216666663,201.10818941368345L275.59225395833334,200.29432491805554L275.83840299999997,209.39050353291856L276.9744755,216.99167021009256L277.54251174999996,198.96255967058684L277.97800620833334,196.7853087983173L278.3188279583333,202.25112594849412L281.0643365,204.38169305533313L282.27614716666665,211.42443528235182L285.1352629583333,204.38462665281006L285.6275610416667,211.31256468060855L289.2629930416667,186.68392430995368L289.39553483333333,172.1426432805439L291.53513804166664,174.78842395758912L291.5919416666666,174.13763760207172L293.10670500000003,160.63948631742002L293.92089029166664,170.51225004037474L295.53032633333333,168.16418249212165L296.117297125,165.96353667388559L296.42024979166666,169.72217446425614L296.74213699999996,162.5526634998488L297.4995186666667,161.9470665554131L298.37050758333334,167.2105156382923L298.389442125,174.18157444606993L298.80600204166666,173.41259804004002L299.468711,186.62370959774339L299.96100908333335,186.60323475514124L300.1314199583333,170.5219193673833L301.116016125,181.12360376494024L301.17281975,178.13880459237154L301.8165941666667,183.76182391173586L301.89233233333334,178.09676545599996L302.32782679166667,180.1181649260693L302.44143404166664,171.1148391068306L302.479303125,167.99859605574096L303.3502920416667,171.93318821824658L304.9029244583333,169.2092295334512L305.26268075,183.67251690440125L305.433091625,189.7719477176725L306.7206404583334,183.7791930783827L306.7585095416667,175.76686467756565L307.8945820416667,185.58624723938897L310.90517416666665,182.00213674217042L311.908704875,182.56839758169014L312.2873957083333,191.41855709852314L312.87436649999995,190.1930383927657L313.044777375,193.70329423807374L313.3666645833333,196.50967176300125L313.68855179166667,199.14478783165802L315.2411842083334,202.11854064151942L315.67667866666665,183.08192313087287L315.94176225,179.44914255920182L317.34291833333333,196.68425246343025L319.5014560833333,194.112180638132L321.31917208333334,194.88276842406685L321.41384479166663,193.79058782224524L322.09548829166664,191.62341697087462L322.68245908333336,192.49168948462102L324.519109625,193.60681492623482L325.01140770833337,194.5909053358468L325.39009854166665,198.13131617487986L326.1853492916667,191.94067769399803L327.39715995833336,187.33177488216396L329.57463225000004,195.7613122348551L330.57816295833334,192.3568250334942L334.61122033333334,186.43953989168187L335.1413875,193.66108049818104L338.5117359166667,196.04537813115454L339.6856775,200.31443749576746L341.16257175,203.02483997084641L341.48445895833333,199.7779135969907L341.9956915833333,213.07132249647313L342.39331695833334,215.5490231130717L342.6205314583333,212.1082781703841L342.90454958333333,208.84906292764163L345.36604,213.16372781111863L348.4523702916667,212.12298682401507L348.52810845833335,221.44417950436508L350.3836935416667,208.40064571645956L351.17894429166665,213.39014718719903L352.14460591666665,220.02419496738088L352.58010037500003,214.11800058061326L353.69723833333336,211.41124250145802L353.75404195833335,210.56812086541404L355.533888875,211.90577526016978L356.17766329166665,206.49386555676486L356.84037225,213.03741589329508L357.57881937499997,210.64437365267497L359.3207972083334,213.80326712399966L361.28998954166667,219.39119562333823L363.9597599166667,224.91938138239476L365.2094396666667,226.42139571545334L365.34198145833335,224.77639205728113L365.83427954166666,207.9869474415471L366.17510129166664,206.1820359349162L367.29223924999997,207.9548560837284L368.23896633333334,206.82519373744273L369.12888979166667,201.96737523636432L370.32176591666666,187.7689511642466L371.74185654166666,196.2561599480533L371.85546379166664,208.19032489579627L372.4235000416666,192.84716513025637L372.5939109166667,198.08061454739254L372.7832563333333,186.7900735802759L374.5252341666667,178.0818807141228L374.69564504166664,162.33973679157143L375.09327041666666,179.45452911843876L376.30508108333333,183.78563453401415L376.664837375,197.27153056870299L379.2210005,197.23956628206864L380.413876625,211.08409393049675L381.28486554166665,211.34339460784707L382.117985375,218.44750656187125L383.7463559583333,215.580846454867L384.844559375,213.6155336659051L387.66580608333334,213.97124399923305L387.70367516666664,216.92883959282761L388.3095805,212.53210945681104L388.89655129166664,192.26780203222538L392.7213287083333,200.86492336225518L393.1757577083334,191.99969513271176L393.34616858333334,202.39474921425938L394.387568375,192.39916524022055L397.2466841666667,201.81756383248347L397.51176775,194.67768354924493L399.44309100000004,199.528811973544L399.840716375,207.31526803746036L402.3590104166667,213.67411871037925L403.72229741666666,226.24773576326018L404.13885733333336,227.47001170655352L404.46074454166666,228.49090724271818L405.33173345833336,223.61250134750227L407.2062530833333,217.05964998953817L408.72101641666666,227.64419641291417L410.16004158333334,228.6511279757653L410.8416850833333,218.88547582451923L412.9434192083333,214.87137529426064L412.96235375,212.65479561924093L413.6061281666666,211.3447546232872L413.87121175,194.60799306153274L414.66646249999997,197.02046482496343L417.8285309583334,191.61956477309337L418.41550175000003,198.8171521853259L419.0592761666667,199.69728936348034L421.10420666666664,201.17028368583357L421.7290465416666,206.98989559984093L422.06986829166664,199.22697365857502L422.107737375,198.58701859890536L422.562166375,207.90681888041868L422.5811009166667,208.61174771163954L422.63790454166667,190.80735011086142L422.9976608333333,200.71121355672858L423.66036979166665,185.8035274257686L424.2473405833333,195.05221631342388L424.9857877083333,181.49602860813883L425.175133125,191.06859328294678L426.8603073333333,191.2146716241805L427.1253909166667,179.4368978170068L427.674492625,173.17929034428954L427.8259689583333,173.65178249611859L428.37507066666666,172.3762966847748L430.24959029166666,185.39306512072002L434.62346941666664,185.3997964889269L435.1536365833333,191.84035568799698L435.3240474583333,196.91603055689006L435.854214625,203.99393124232842L436.5169235833333,216.84112752362302L436.7441380833333,210.09053379050167L437.95594875,225.28878862793172L440.51211187499996,231.12431403557648L441.534577125,236.13757106087064L444.05287116666665,240.21620956840906L444.0718057083334,249.02888186273668L446.72264154166663,255.61985775786042L449.01372108333334,263.13249465692155L449.146262875,259.7905922281999L451.51308058333336,259.6351860539278L453.6526837916667,261.12932978811216L454.54260725,255.09549058679497L454.9591671666667,256.49747927267384L455.35679254166666,253.21809999022642L456.64434137499995,245.57313980611897L457.6478720833333,242.1482185220206L458.74607549999996,244.60130883069604L459.57919533333336,249.9120542258933L463.97200899999996,253.75701344461092L464.38856891666666,264.24599544189005L464.50217616666663,245.82135815226266L466.56604120833333,250.62936412562277L466.83112479166664,262.007703792144L467.03940475,264.5965970394456L468.2890845,260.6799451372808L468.40269175,250.20380282272998L469.5198297083333,254.02856344337667L470.03106233333335,255.17248155552625L470.4665567916667,245.59047068881046L471.7919747083333,251.58795674632785L472.208534625,240.92357987129287L472.8333745,240.6515871425546L473.28780350000005,247.29596844906507L474.04518516666667,243.28057425874613L474.38600691666664,239.3347762458909L474.4996141666667,245.14221840161917L474.55641779166666,231.21152722691218L475.9954429583333,235.2883134440716L476.01437749999997,232.49237510003175L476.90430095833335,252.11199101659116L477.49127175,234.55487554329926L478.002504375,232.59194069395684L478.059308,230.8669643074867L478.15398070833334,226.30557190446615L479.4983331666666,226.95009115167056L479.706613125,233.94682366623076L480.6344056666666,236.2910193898766L481.71367454166665,240.55810852824845L482.56572891666667,243.32006595994045L483.34204512499997,239.13796120884572L483.5881941666667,240.6515396466487L483.60712870833333,243.48334851866647L484.023688625,223.03596685107735L484.32664129166665,233.4672246971494L486.42837541666665,228.7447475689524L486.8260007916667,226.42999267182336L488.13248416666664,220.89433250542734L488.1892877916667,226.00461262312476L488.20822233333337,227.10016863034426L489.1170803333333,235.03583977256173L489.5715093333333,246.92996024179257L492.0708688333333,246.79620448697767L493.8317812083333,249.96265169965804L495.043591875,251.59829357705178L496.27433708333336,255.5972299658481L496.70983154166663,252.3375050411605L498.30033304166665,245.76580042610598L498.35713666666663,248.11010063449186L498.451809375,251.81453278050373L499.7204236666667,249.27724471235285L500.0612454166666,249.17918536711414L501.4813360416667,244.840540130866L502.2197831666667,241.49073586382306L505.21144074999995,249.92843542535883L506.02562604166667,229.6091764737201L507.25637125000003,237.0194331780798L507.3699785,238.58836782227343L507.8622765833333,246.7684739551604L508.25990195833333,234.45975656082985L508.37350920833336,220.40970040120382L511.36516679166664,217.68753300448043L515.89052225,222.79894588055436L516.1366712916666,227.39214434154437L516.7804457083333,210.587367496569L517.2348747083333,202.89243731349003L517.4999582916666,213.88507891546888L518.0301254583334,222.93248116496355L520.1886632083333,214.75150851782794L520.8513721666667,219.41052380621304L521.5519502083333,224.59376682057322L523.2749935,220.5661667055358L525.7364839166667,220.97043336666493L527.1565745416667,225.38756812007486L528.8606832916666,220.6087133302412L528.9174869166667,230.87099467119506L531.7008645416666,230.53622187296602L531.7766027083334,230.277814513292L532.7990679583334,235.7902226485585L532.988413375,223.6627068214107L533.6321877916666,227.32831645822944L533.8215332083333,239.04585678072164L534.3138312916667,236.54560435034074L535.1658856666667,239.49948643082718L535.601380125,238.32713138471595L536.56704175,240.95493547757306L537.02147075,241.3499898992198L537.3812270416666,247.82679462958018L538.2711505,235.6593944129015L540.4107537083333,235.95464546021373L541.3385462499999,234.6668608771351L542.872244125,232.79812718216118L543.0805240833333,231.8931746904986L543.4592149166666,245.07989654055908L544.8414364583333,248.10117766252122L545.9207053333333,257.61027120489626L547.9467012916666,238.48315661266525L550.6164716666667,234.81438193025255L551.3549187916667,231.33927517232084L551.9040205,241.6415072948671L553.551325625,242.32886481435747L554.460183625,239.14107317978596L554.4980527083333,246.6563045832447L555.2175652916667,242.67709646571944L555.65305975,233.86944005953956L556.9974122083333,229.48664331400195L559.6671825833333,229.56873117795539L560.87899325,237.10814551331296L562.7345783333334,227.19834285074035L562.8860546666666,233.05455568838536L566.1806649166667,240.61843152556708L566.8055047916666,246.5785028013466L568.206660875,243.61128034730132L568.945108,238.98616909256035L570.5734785833333,231.64148535197901L571.9557001249999,233.6840756272037L572.4290636666667,245.70912204220247L572.6752127083333,238.88581950455273L572.8456235833333,239.15565821031024L574.341452375,237.60417356445245L575.4585903333333,229.00066647447213L577.6171280833332,236.6468408302772L577.9011462083333,239.26641963498088L579.396975,238.49541679575202L581.044280125,238.94849826299097L582.7294543333334,243.28321106460578L583.430032375,223.58712075183936L584.0927413333334,231.10369818015423L585.4938974166666,229.0114571713509L587.8417805833333,232.15530395128448L588.2394059583334,231.929036759668L588.7127695,219.99247276395897L589.905645625,225.07707685915867L589.9245801666666,225.1231360475259L590.1896637499999,227.8501661916329L592.518612375,224.95892501660933L592.7268923333334,226.28727343171963L594.6203465,226.28515250193564L595.8889607916666,213.47703451172447L599.6758691250001,218.02905549364957L602.0805559166666,214.71762712916487L602.0994904583333,214.401453207237L602.6485921666666,214.900713808642L602.68646125,215.25845718474247L604.560980875,215.6200789369259L607.4011621249999,219.36042041570394L608.6129727916666,219.68406203524546L608.7265800416667,206.8299035065911L608.8401872916667,215.3121064213141L608.9159254583334,224.97364002983724L608.9348600000001,222.34566834868622L611.1123322916667,217.77201133289327L614.4258770833334,226.2627576263119L615.4862114166666,227.6545098713597L617.3417965,238.28540702495917L617.5311419166667,239.3200847384372L617.6636837083333,238.32110912560782L618.0045054583334,234.14201450663708L619.0837743333334,242.66417050101603L619.9168941666667,247.6883034777146L621.54526475,246.9251362711073L623.2683080416666,251.84317208310773L623.306177125,247.4476865040807L623.9120824583333,241.984189519325L624.2529042083333,238.0955686347214L629.6113795,243.88967667722397L630.1036775833333,237.89673521535073L630.9367974166666,239.38148113225148L631.9781972083333,241.73289134214886L633.1521387916666,250.62953322792993L633.3982878333334,255.7631835133443L635.1402656666667,264.24619417270293L635.689367375,266.51618969068613L636.4278145000001,262.4343844885255L641.7294861666666,264.15633994287384L643.2253149583333,266.9543041317345L643.7176130416666,267.61271374184753L644.1341729583332,250.09055741620898L644.4939292500001,241.9726932524588L644.9672927916666,227.2396911579845L645.2702454583333,232.39222602695327L645.4974599583334,208.72367055270615L646.31164525,216.72904387607062L647.5991940833333,216.89914259789305L648.7731356666666,222.03418845571417L652.7115203333333,231.63415975338108L652.8440621249999,218.8106402595029L653.014473,213.41311510278553L653.9612000833333,219.67198578680308L654.0180037083334,226.25454070971824L654.4156290833333,233.3605800544645L655.002599875,243.627936559445L655.3623561666666,245.30183553807095L657.9374538333334,247.77611272716922L659.4711517083333,259.6852162928518L659.49008625,263.24794770708553L660.1338606666666,248.8466612422306L662.7278928750001,260.1396283190116L662.8225655833334,253.70228318578472L663.3148636666666,249.15302858496216L664.1858525833334,255.72705929295958L664.4698707083332,247.44569920569342L666.0225031250001,249.51491011902317L666.8366884166667,246.32364758196059L667.3289865,246.8993889717139L668.1053027083333,240.12321260579944L668.919488,239.47767545382953L671.4188475,237.5284675341597L671.5513892916666,230.7646299142975L671.6271274583332,228.49624804717465L673.5584507083333,223.60113489354407L674.315832375,234.87701837921836L676.0956792916667,237.32369199740276L676.3607628750001,229.1058118365622L676.701584625,227.9398450590438L682.6470307083333,228.53505191446584L683.6505614166666,214.4362160713798L685.903771875,213.15777212424683L689.3498584583333,221.12747404090382L690.0504365,216.49407243076055L691.8302834166667,209.8464049959207L694.8408755416667,221.46605436073284L695.333173625,213.68927004282432L696.0905552916666,208.4709429477927L696.9615442083334,202.77535567278738L698.1922894166667,202.01372600567646L698.3248312083333,199.69605432378967L698.4763075416666,209.14862068365522L699.3851655416667,210.15135758052045L699.5555764166667,213.16281842685618L700.672714375,206.28644520219814L700.9188634166667,208.76484770005226L703.6643719583333,218.92711710516892L703.8915864583333,224.88513004539857L704.5164263333334,216.96416611798068L705.3116770833334,199.36340186065408L706.5424222916666,200.38773098966706L708.8335018333333,206.42534183976116L710.6133487499999,216.7020585392423L710.8594977916667,228.71522327706867L712.1659811666667,244.42935049642003L713.0369700833334,245.84681580534982L713.9647626249999,256.31566622135233L715.0250969583333,258.29505558767994L717.5244564583334,266.58439422918L717.6759327916667,257.39244308219276L719.5693869583333,260.88160906079634L719.7966014583334,272.03357790749135L720.1752922916667,272.81178081504214L722.3338300416667,265.37242015992274L722.4095682083333,266.3813310206685L722.9208008333333,266.3727987941412L722.9586699166666,257.69784061617145L724.6627786666667,249.87838290391784L725.9881965833333,258.1399987127775L726.4994292083333,261.2246039422132L726.6319709999999,258.06537139044735L727.1621381666666,235.470445694874L729.7372358333333,241.59491965292472L731.4792136666667,240.3495480042424L731.6117554583334,242.0979007607933L733.3158642083333,242.28069829261833L733.4862750833332,247.67717460584635L733.7134895833334,241.50601730567303L734.073245875,234.76647755113805L734.3951330833333,247.18235664175654L735.4175983333333,246.41941347581073L735.6448128333333,250.36117775025897L736.1181763750001,249.2344497124634L736.8187544166666,256.7008714449105L737.9169578333333,259.46817655525206L738.78794675,257.4246798078869L739.1477030416667,268.0524356709279L739.2802448333334,255.41866012007233L740.15123375,252.28300753992687L741.1358299166667,251.7602163275739L741.1926335416666,239.10734729450573L741.8553425,238.80963138311833L744.3168329166667,248.3431510856267L745.3014290833333,249.5577878278654L745.320363625,257.1858091194365L745.717989,257.31141528474745L746.7593887916667,261.82899543169685L748.4066939166667,259.94832979941367L748.4256284583333,257.04992653221444L749.1451410416666,263.737579724096L749.80785,267.3517050040406L749.978260875,258.9819775973342L752.6859003333333,253.15861891098155L753.2918056666667,251.1903976188663L755.090587125,246.54746195170608L757.9686374583333,248.51587753208884L758.89643,248.3878951595468L759.5780735,250.46459940026799L760.7520150833333,258.11843450653447L762.2099747916667,254.19513275212395L762.2667784166667,265.0966987972412L763.7058035833334,268.00809364916904L764.1034289583333,266.42941522103604L764.2549052916667,266.11617615105087L764.5010543333334,259.6884068377703L764.5389234166668,260.46008081874874L764.6525306666667,251.95534889321334L766.50811575,238.24071351794598L766.5459848333333,244.7261754922348L768.1932899583334,248.36759460434612L768.2500935833333,238.7580007743122L768.7613262083333,255.18795605678955L771.9991328333333,256.91337507996934L772.131674625,251.98169756640016L773.381354375,263.34087790244155L773.4760270833333,263.27230824879325L775.4452194166666,275.6149004730426L775.767106625,274.6352860221848L777.0357209166666,265.76271830254706L777.41441175,262.15751329847L779.4404077083334,248.82734371402148L780.4250038749999,254.56648158623548L780.709022,249.7131906446329L780.993040125,248.6196746879334L781.2959927916667,254.79308283212373L781.5421418333333,268.6969119925579L782.2048507916667,270.42167233165134L782.5646070833333,265.6288462605277L782.6971488749999,260.98778533669514L787.1088970833333,257.0497221449167L788.2449695833333,257.3843844384475L788.8130058333334,269.0694408684103L789.172762125,235.96855698260802L790.8579363333333,244.64285083491455L791.5963834583333,250.03135159348838L791.6721216249999,244.68819921876403L791.8425325,240.48016765440028L791.95613975,246.72425334033858L792.4295032916667,235.90606005299736L793.5087721666666,240.11314758247926L796.2732152499999,250.98871589652438L798.4696220833333,263.9617431790723L799.0944619583333,260.28088979764664L801.1583270000001,247.8201410217928L801.2719342500001,247.49360159210687L801.442345125,241.7341485572292L803.884901,246.69230472502827L804.5286754166667,259.6974762359549L809.735674375,265.0930130702845L810.5498596666666,267.1030015507763L811.8563430416667,280.1274137564059L815.9272695,283.2826779677747L817.8396582083333,273.30231424740714L818.8810579999999,272.2205679425798L819.1650761249999,269.8322873803974L820.4715594999999,266.97116904083L821.1153339166667,254.90076267239343L822.51649,249.59424782755895L822.8194426666666,238.29996906414777L823.027722625,238.38361263635434L823.6714970416666,232.6981574068777L825.1862603750001,224.67218397155355L826.3412674166667,217.12446111870497L826.3602019583334,220.75640975694895L827.4584053750001,218.1510202574465L827.8370962083334,222.75196005856003L828.6512815000001,224.03134199550666L828.7459542083334,222.98204159547137L830.1092412083334,235.05572190677964L832.7790115833333,232.5624685103556L833.2145060416667,234.51007027234314L833.2334405833334,242.96264465860114L835.80853825,239.5349759945589L837.62625425,242.34569205669035L838.7433922083333,234.6223905471611L838.9516721666668,229.36439418100542L844.329082,240.6946952875241L846.430816125,237.79586374123605L846.9609832916667,241.22572478917652L847.9266449166666,245.37029693491408L849.7632954583333,247.8319688712757L850.35026625,249.72288067190436L850.4449389583334,251.11899620494603L850.7668261666666,253.14725602839235L851.7324877916667,253.52100412294985L852.4520003749999,256.0928068817292L856.314646875,261.93019382836013L857.677933875,262.6666137673486L859.66606075,248.8234529123406L861.3133658749999,253.85730805965906L861.540580375,259.52317594762667L862.1464857083333,261.4924450449249L862.676652875,268.7243534822869L864.3239580000001,268.098155427172L864.5133034166666,260.9702961427781L864.6269106666666,242.8884392869382L864.7026488333333,243.21056150034195L865.289619625,240.22120366610957L865.3274887083334,233.2520658243658L865.5925722916667,231.21279172692317L865.7061795416666,232.35818841189115L867.0884010833333,239.8758304619259L871.7652328749999,240.09611603964018L873.4314725416667,247.9384716304274L873.923770625,247.06527873858772L875.627879375,253.46303108466935L876.139112,249.3881811331975L877.4645299166666,247.00181087131773L878.75207875,240.83939532382794L880.3047111666667,245.63240824550806L881.2135691666666,247.36230757684223L881.5165218333334,247.38250782029527L882.0656235416666,236.48852937881355L882.5389870833334,253.00819852545678L882.898743375,246.42589287905963L885.625317375,240.70559104985503L885.7767937083332,246.72911937104703L886.988604375,247.87326538988162L887.499837,239.40199861104247L890.056000125,235.65668746817846L890.1885419166666,249.89400043474353L890.5293636666667,251.99907367117274L892.4796214583333,251.45759468169302L892.9340504583333,249.30534330554553L893.123395875,250.5763766985446L893.3884794583333,243.49527557294132L894.5624210416667,249.60203781900117L896.3612025,249.04456947693114L897.61088225,244.92708392822576L898.462936625,247.4601620496307L898.803758375,242.07126980691032L898.9931037916666,253.01556078252875L899.3907291666666,244.7256597262965L901.4545942083333,227.73170513851272L902.780012125,228.12563916691943L904.6355972083334,233.85576844567413L906.8509385833333,228.06170213853844L907.5704511666665,224.27871189550788L908.1952910416667,224.33987229646326L908.5171782499999,227.00286637564028L909.255625375,227.60658018221682L913.8377844583333,234.00094238133028L914.140737125,242.40254590198847L917.8519072916666,251.47378778189045L918.6850271249999,262.96872535162316L919.3477360833333,257.4460465126078L919.9157723333333,256.74393843264613L920.3702013333334,261.4222401906706L920.9761066666666,251.48610908436547L921.2033211666666,254.91179726002036L922.3393936666666,249.56617321313303L922.8506262916667,232.64261247330333L922.9263644583333,230.38047008559164L923.2103825833333,231.04498763074017L923.7026806666668,234.08132410836262L924.1192405833333,235.94969402226943L924.7440804583333,230.95667835865393L926.3535165,226.42150435949264L927.3570472083334,227.9355948410409L927.432785375,222.4851701234902L927.6789344166666,231.84688227159668L929.19369775,223.79105234121064L929.2694359166666,227.3268984297015L929.7806685416667,237.65059369647463L929.9510794166666,243.7758939082775L931.5983845416666,250.333765106799L931.7309263333334,247.50210343502744L932.5640461666666,248.88989482579274L933.567576875,255.93157252549358L934.2302858333334,256.0250416781975L934.306024,246.83336582750582L935.4610310416667,252.58080324715445L937.2976815833333,251.5660246938952L938.0171941666666,256.0231852100428L938.8881830833334,256.5185796163561L938.9071176250001,254.99894270641812L940.0242555833333,243.89308995447902L941.6147570833333,232.75023501588768L942.0691860833334,235.56115624594332L942.996978625,233.77252698059496L943.2620622083334,242.9952591100093L946.0643743749999,235.26163862812365L946.632410625,235.34246460755404L947.7495485833334,237.65795907801228L948.7152102083332,236.15343006088125L952.6157257916667,243.24324531081962L952.7861366666667,226.989485339112L953.7517982916667,228.31845304949428L953.789667375,242.69719944693242L956.3458305,242.90162411880195L957.027474,239.07355605986422L958.9777317916667,234.02114366678975L959.2049462916667,229.7142340151387L961.3445495,231.56438749190457L962.6320983333334,232.86644815740675L963.2948072916666,244.8751120183598L966.1349885416668,243.68745733161134L966.3053994166667,242.32051603148977L966.8166320416666,243.03667296365398L967.3846682916667,231.70234422375847L968.0284427083333,224.5979735793616L968.8804970833334,239.60347289601924L969.0319734166667,239.6453818690563L969.5621405833334,243.34791992187098L971.7017437916666,239.6637391476499L972.0046964583333,225.05448901490104L973.1786380416667,228.31447704100634L973.50052525,240.21244589929435L975.1288958333332,245.07369393428132L975.2993067083333,255.89369236783313L978.1205534166667,264.7212712501898L978.8590005416667,265.23902199735574L979.8435967083334,263.16927756043486L985.2967447083333,262.38858095809053L985.6943700833334,259.6122664088196L988.3641404583333,258.58810890618287L989.17832575,257.28292659511897L990.1818564583334,268.82016235109506L990.3143982500001,271.6426422304155L990.6930890833333,279.53850931984175L991.1853871666666,291.61196937153335L992.8894959166666,291.1066542273015L993.8740920833334,293.61078085815836L995.0101645833333,294.94556220051095L995.142706375,287.0259872199356L995.6918080833333,290.2688387108753L996.6953387916666,285.7538123359051L996.7710769583333,281.824935392894L997.017226,282.8102906376665L997.2823095833334,273.4397098515916L997.7367385833332,284.88598483507513L997.9639530833333,285.6123809278644L998.5698584166666,286.30346848012624L998.7024002083333,275.9335022608856L998.9674837916666,275.9668754706087L1001.107087,284.3232952718708L1001.3153669583332,279.737985119585L1001.4289742083332,290.98050579335006L1002.2052904166667,292.7814108094664L1002.2810285833333,289.2436874185678L1002.5461121666666,289.5309781333784L1002.981606625,282.8552763222649L1004.9886680416668,280.9117817490858L1005.8028533333332,272.8168940221002L1006.6359731666666,275.41137971383614L1006.9767949166667,269.18727636036067L1007.2797475833333,273.0550548807299L1007.8477838333333,267.3182249610669L1009.1542672083333,273.0668915949094L1011.5210849166666,273.3451507905313L1012.3731392916667,273.68368944654054L1013.0737173333333,271.65426056725727L1013.092651875,272.6213380272737L1013.2819972916667,271.52623417741836L1013.433473625,245.01170842307877L1013.9068371666666,240.52130939140142L1015.478404125,239.80161340394878L1015.5730768333334,234.91504609190432L1015.8570949583333,221.23566318342634L1019.5303960416667,230.04016193635124L1022.1433627916667,219.98187565662164L1027.634379875,223.9052595962492L1028.656845125,227.15780236633313L1029.1302086666667,236.43037872265356L1031.5159609166667,232.51783059661864L1033.0496587916666,223.0421141002663L1033.9774513333334,216.63348144488157L1034.2046658333334,219.43354586541176L1034.564422125,207.16615173549158L1035.6815600833334,218.86560178034435L1037.8779669166665,225.2957553181317L1039.3737957083333,231.72208628881103L1040.1690464583332,224.1475277586885L1041.5323334583334,220.56003763712155L1042.4790605416665,222.17274323545612L1043.1796385833334,216.1438991565625L1044.2399729166666,232.5039028047141L1044.5429255833333,245.5107019923028L1045.1109618333335,255.2589676254463L1046.493183375,246.33209563240206L1048.651721125,254.83999640576644L1050.3179607916666,251.4194022240457L1051.605509625,262.16995430263717L1052.173545875,264.42522840795027L1052.9687966249999,258.385394113875L1053.3285529166667,265.18276611620576L1053.366422,256.5872214994476L1053.48002925,263.57283653275L1056.9261158333334,245.99389365515276L1059.9556425,235.28628131229348L1060.637286,245.8463163929087L1062.8147582916667,230.85019642444965L1062.8904964583332,233.1136636182426L1064.6514088333333,229.70016245133323L1065.692808625,232.13048666410748L1066.828881125,237.77155582936413L1068.6276625833334,240.53860511733532L1070.4832476666668,239.83612858099434L1072.4903090833332,237.24019106911996L1073.92933425,237.49303454714592L1074.554174125,246.35401266508364L1075.3872939583334,255.40080176975096L1075.463032125,253.79593673599365L1075.6145084583334,256.99402938347686L1076.0689374583333,261.1081604664352L1078.4168206250001,255.27424347918299L1079.3067440833333,255.3108802331858L1080.5564238333334,255.12036231158672L1080.5942929166667,255.2634742841286L1082.620288875,253.8408462759508L1083.7752959166667,260.86823669318596L1084.8166957083333,248.60166755185523L1085.346862875,247.34980327815467L1085.9717027499998,253.57195509967886L1086.42613175,249.23358290290219L1086.6154771666668,245.633173285658L1088.8308185416668,246.7617033721655L1088.9444257916666,248.6182954212135L1089.2852475416666,236.15117361557455L1090.6106654583332,241.2087279691113L1090.7053381666667,253.39814497832168L1091.42485075,247.64428410008338L1092.10649425,252.7933992540765L1092.2011669583333,251.54050582888544L1094.1135556666666,238.84536468720137L1094.4733119583334,240.3068642588724L1096.2720934166666,240.895276534486L1096.4425042916666,239.6970833237354L1096.593980625,248.1213697814629" style="fill: none;" fill="none"></path></g></g></g></g><g opacity="0.2"><g><g><g><path stroke="rgb(255, 112, 67)" stroke-width="2px" d="M95.486893625,35.47515785694122L95.54369725,-78.22112524509424L96.03599533333333,-2.0033963918685913L96.47148979166667,201.36969602108005L97.85371133333334,93.30273485183716L99.02765291666667,-97.42012703418726L103.66661562499999,-57.629675507545414L104.84055720833332,156.28987765312198L105.6547425,-68.2228484153747L105.78728429166667,-25.20388746261591L106.69614229166666,38.58754551410675L106.94229133333333,26.485650897026062L107.39672033333333,19.633959889411926L108.210905625,20.45603311061859L108.36238195833333,4.047094941139221L109.55525808333333,294.3645632863045L109.87714529166668,135.15303051471713L109.99075254166667,-328.72572326660145L110.52091970833334,-44.855672955513L113.07708283333334,85.07800018787384L113.89126812500001,240.27499771118164L114.87586429166666,-17.41400146484375L115.59537687499999,126.12370169162753L117.03440204166667,-122.42374801635737L118.56809991666667,-23.424721598625126L119.60949970833335,57.80068254470825L119.66630333333333,55.1776579618454L119.93138691666667,119.54863584041598L120.00712508333332,-147.64547729492188L120.91598308333334,-102.43641519546503L121.04852487500001,96.80781877040863L121.88164470833333,219.11266660690308L122.44968095833333,0.2367100715637207L123.52894983333333,-69.64508676528925L124.07805154166667,-196.17064678668976L124.38100420833334,114.98695528507233L124.68395687499999,50.347965121269226L126.70995283333333,142.3222831487656L127.52413812500001,-130.00444257259363L127.58094175,114.39839220046997L129.60693770833333,108.22301423549652L130.023497625,304.59249979257584L130.23177758333333,228.152558863163L130.98915925,188.80696213245395L131.5571955,180.03333425521853L133.24236970833334,225.08239960670474L134.37844220833333,106.90575158596039L136.1014855,140.883731007576L136.3287,-123.49944496154785L136.93460533333334,145.50529634952545L137.521576125,114.63605678081512L138.37363050000002,165.96223330497742L139.92626291666664,171.81776976585388L140.816186375,316.8198383450508L141.13807358333332,-103.98100697994232L141.17594266666666,132.82157695293427L141.270615375,210.734622836113L141.74397891666666,89.74648034572601L141.76291345833332,196.63363015651703L141.99012795833335,7.882862448692322L142.08480066666667,60.97224569320679L142.633902375,265.84491497278214L145.53088724999998,93.07459509372711L146.57228704166667,132.4969223737717L150.870428,97.80432796478271L152.21478045833334,61.142932534217834L152.27158408333332,218.2383588552475L154.54372908333335,70.62712228298187L155.85021245833332,13.336025834083557L156.11529604166665,157.37753129005432L156.153165125,164.31053793430328L156.17209966666664,-6.2039443254470825L157.27030308333332,21.849950313568115L160.583847875,107.15481555461884L163.196814625,275.32692617177963L163.23468370833334,27.651580333709717L164.18141079166665,273.63102650642395L165.52576324999998,-6.156522870063782L166.90798479166668,205.3066394329071L167.04052658333333,121.13310015201569L169.06652254166667,256.66508889198303L169.59668970833332,211.53784906864166L170.126856875,333.98782378435135L171.11145304166666,263.16185361146927L172.285394625,165.37346756458285L174.14097970833333,36.24175405502319L174.7279505,110.06383812427521L174.82262320833334,160.4575446844101L176.43205924999998,277.87618404626846L176.4699283333333,-4.235143303871155L178.00362620833334,165.0757155418396L179.74560404166667,164.73672306537628L180.06749125,192.35581970214844L180.46511662499998,241.43208628892899L183.00234520833334,-27.613059520721492L183.07808337499998,39.03946793079376L183.22955970833334,111.71350693702698L185.350228375,96.18201768398285L185.61531195833334,16.75047194957733L186.33482454166668,13.465472221374512L186.56203904166668,120.9733567237854L187.35728979166666,100.36655580997467L188.8152495,142.40886783599854L190.31107829166666,133.11208403110504L190.348947375,264.1687995791435L191.37141262499998,326.2670180797577L191.90157979166665,114.48386228084564L195.8967680833333,33.735357880592346L196.16185166666665,252.2300682067871L197.3168587083333,-50.253612637519836L199.75941458333335,286.51114469766617L202.220905,126.56001961231232L203.05402483333333,175.22172844409945L204.663460875,109.22788298130035L205.04215170833334,189.5667186975479L205.72379520833334,183.31757402420044L205.856337,-24.65453827381134L206.53798049999997,265.2117676138878L206.935605875,292.2880253791809L208.10954745833334,130.75803434848785L208.48823829166665,61.61770439147949L210.58997241666668,86.52212536334991L210.77931783333332,196.32751858234406L212.08580120833335,30.622564911842346L212.33195025,-2.3974099159240723L212.4455575,153.73727595806125L213.7709754166667,99.25027704238892L214.20646987499998,141.71522772312164L215.41828054166666,171.86473524570465L218.14485454166666,171.84006190299988L219.16731979166664,148.58997082710266L219.7164215,192.279114484787L220.73888675,165.18023526668551L221.477333875,96.48154294490814L221.5341375,149.85864675045013L221.76135200000002,44.875752091407776L222.34832279166667,308.7944663167L224.46899145833333,68.00217247009277L226.589660125,215.73682641983032L227.08195820833333,193.6844817399979L229.24049595833336,206.7416957616806L229.39197229166666,62.997334361076355L230.1682885,293.87935465574265L231.91026633333334,191.73518633842468L233.122077,158.74160742759705L234.03093499999997,-242.68921995162952L234.46642945833332,88.23669469356537L235.75397829166664,10.221611618995667L235.94332370833334,108.1227502822876L236.00012733333332,219.75199496746063L236.2841454583333,325.29181307554245L236.9089853333333,270.5665669441223L240.35507191666665,222.76087617874146L241.62368620833334,202.8944275379181L242.153853375,221.93533247709274L242.34319879166665,290.3788304924965L243.00590775,348.0467147231102L245.9975653333333,152.68067932128906L247.4176559583333,205.6934586763382L249.57619370833334,216.64426839351657L250.35250991666666,159.88245820999146L253.04121483333333,152.03658854961395L253.13588754166665,262.59654527902603L253.30629841666666,239.50771754980087L255.06721079166667,268.51954078674316L255.59737795833334,263.00636595487595L255.78672337499998,273.7937337756157L257.54763575000004,153.73489475250247L258.1914101666667,161.05284607410434L259.3274826666667,257.1368462443352L262.79250379166666,272.2978807091713L263.284801875,202.77830576896667L263.3416055,230.73135381937027L263.739230875,240.19928044080734L263.8717726666667,183.32360303401947L264.96997608333334,173.74071991443637L265.0835833333333,270.5137497782707L266.14391766666665,206.73845326900482L270.0254987083333,159.67098689079285L271.08583304166666,264.3960020542145L271.691738375,342.6255709528923L273.3390435,210.66379463672638L273.963883375,154.8194578886032L275.45971216666663,15.458946585655212L275.59225395833334,191.75342535972598L275.83840299999997,304.8480994105339L276.9744755,296.7602334022522L277.54251174999996,9.760519027709961L277.97800620833334,173.93668806552887L278.3188279583333,259.6107921600342L281.0643365,226.7404026389122L282.27614716666665,285.33275192976L285.1352629583333,130.50709581375122L285.6275610416667,284.01609724760056L289.2629930416667,-71.77525246143335L289.39553483333333,19.54276478290558L291.53513804166664,202.553915143013L291.5919416666666,167.30812108516693L293.10670500000003,18.986474633216858L293.92089029166664,274.1195282936096L295.53032633333333,143.52296805381775L296.117297125,142.8694031238556L296.42024979166666,209.16626965999603L296.74213699999996,87.31400287151337L297.4995186666667,155.59177911281586L298.37050758333334,222.44648104906082L298.389442125,247.33762806653976L298.80600204166666,165.34276521205902L299.468711,325.26445454359055L299.96100908333335,186.38836658000946L300.1314199583333,1.760529637336731L301.116016125,292.3803604245186L301.17281975,146.81556737422946L301.8165941666667,242.77121043205264L301.89233233333334,118.64620959758759L302.32782679166667,201.3312420845032L302.44143404166664,76.6316614151001L302.479303125,135.2959535121918L303.3502920416667,213.22379326820374L304.9029244583333,140.6233183145523L305.26268075,335.45391178131104L305.433091625,253.78091698884964L306.7206404583334,120.88971054553986L306.7585095416667,91.68346440792084L307.8945820416667,288.63333082199097L310.90517416666665,144.38957488536835L311.908704875,188.51088201999664L312.2873957083333,284.29436898231506L312.87436649999995,177.3321352005005L313.044777375,230.54080671072006L313.3666645833333,225.96050715446472L313.68855179166667,226.7983621954918L315.2411842083334,233.32585459947586L315.67667866666665,-16.69315481185913L315.94176225,141.32582461833957L317.34291833333333,377.5538540482521L319.5014560833333,167.12020850181582L321.31917208333334,202.96951150894165L321.41384479166663,182.32896840572357L322.09548829166664,168.8805780410767L322.68245908333336,201.60356080532074L324.519109625,205.30922329425812L325.01140770833337,204.91819894313812L325.39009854166665,235.28528279066086L326.1853492916667,126.97455203533173L327.39715995833336,138.9647833108902L329.57463225000004,284.22300881147385L330.57816295833334,156.62927544116977L334.61122033333334,124.34205329418182L335.1413875,269.4457537531853L338.5117359166667,221.0668004155159L339.6856775,245.11502599716187L341.16257175,231.46848893165588L341.48445895833333,165.70384716987613L341.9956915833333,352.5757170319557L342.39331695833334,241.55063992738724L342.6205314583333,176.00023066997528L342.90454958333333,174.6460340023041L345.36604,258.44291216135025L348.4523702916667,201.2011877298355L348.52810845833335,319.2631325721741L350.3836935416667,71.51850378513336L351.17894429166665,265.7512373328209L352.14460591666665,289.64356994628906L352.58010037500003,152.13690316677094L353.69723833333336,183.0058387517929L353.75404195833335,201.72018921375275L355.533888875,225.94345873594284L356.17766329166665,149.69991660118103L356.84037225,281.7070878148079L357.57881937499997,185.53118324279785L359.3207972083334,246.9534940123558L361.28998954166667,278.03233033418655L363.9597599166667,282.93356066942215L365.2094396666667,242.18391394615173L365.34198145833335,207.51330769062042L365.83427954166666,31.794270038604736L366.17510129166664,187.24083817005157L367.29223924999997,226.55927902460098L368.23896633333334,194.97023141384125L369.12888979166667,150.98819947242737L370.32176591666666,38.76709854602814L371.74185654166666,285.3230751156807L371.85546379166664,333.4304696917534L372.4235000416666,31.83216667175293L372.5939109166667,253.00175613164902L372.7832563333333,68.30428159236908L374.5252341666667,86.69590270519257L374.69564504166664,-2.862302303314209L375.09327041666666,359.06148767471313L376.30508108333333,229.23734998703003L376.664837375,338.79593378305435L379.2210005,196.90412497520447L380.413876625,356.37206798791885L381.28486554166665,214.0645614862442L382.117985375,292.999853849411L383.7463559583333,185.49739038944244L384.844559375,192.9910442829132L387.66580608333334,217.70415818691254L387.70367516666664,247.96659564971924L388.3095805,166.39171159267426L388.89655129166664,-20.390964388847408L392.7213287083333,291.08528858423233L393.1757577083334,98.96574831008911L393.34616858333334,311.4830753803253L394.387568375,87.50297939777374L397.2466841666667,300.656620323658L397.51176775,119.74997437000278L399.44309100000004,250.43778038024902L399.840716375,289.02830696105957L402.3590104166667,280.40550565719604L403.72229741666666,358.1984526515007L404.13885733333336,240.29688453674316L404.46074454166666,239.2044431567192L405.33173345833336,172.417276263237L407.2062530833333,148.2923707962036L408.72101641666666,338.7211031317711L410.16004158333334,239.2181224226952L410.8416850833333,116.40225267410278L412.9434192083333,172.7463892698288L412.96235375,189.39344799518585L413.6061281666666,197.5968531370163L413.87121175,18.96818494796753L414.66646249999997,222.3375535607338L417.8285309583334,134.94115388393402L418.41550175000003,274.3504545688629L419.0592761666667,208.9336714744568L421.10420666666664,216.62825858592987L421.7290465416666,268.06237465143204L422.06986829166664,117.76090776920319L422.107737375,191.87116837501526L422.562166375,305.71115976572037L422.5811009166667,216.00944912433624L422.63790454166667,3.963499426841736L422.9976608333333,304.6448609828949L423.66036979166665,29.35849940776825L424.2473405833333,292.11029624938965L424.9857877083333,39.23396682739258L425.175133125,291.5255076289177L426.8603073333333,192.7476546764374L427.1253909166667,55.837961196899414L427.674492625,107.51037514209747L427.8259689583333,178.61023461818695L428.37507066666666,158.9910260438919L430.24959029166666,321.99432468414307L434.62346941666664,185.470437169075L435.1536365833333,259.42921257019043L435.3240474583333,250.1814461350441L435.854214625,278.2712108492851L436.5169235833333,351.6628540158272L436.7441380833333,139.2480961084366L437.95594875,384.78311812877655L440.51211187499996,292.36379331350327L441.534577125,288.74795800447464L444.05287116666665,283.01847344636917L444.0718057083334,341.5112934112549L446.72264154166663,324.787225484848L449.01372108333334,341.97200602293015L449.146262875,224.7198230624199L451.51308058333336,258.0043143630028L453.6526837916667,276.80925196409225L454.54260725,191.77485620975494L454.9591671666667,271.210303068161L455.35679254166666,218.8034645318985L456.64434137499995,165.34499442577362L457.6478720833333,206.20622849464417L458.74607549999996,270.34465885162354L459.57919533333336,305.64435935020447L463.97200899999996,294.1069877743721L464.38856891666666,374.32002490758896L464.50217616666663,52.468555331230164L466.56604120833333,301.0857946276665L466.83112479166664,381.41487753391266L467.03940475,291.7650974392891L468.2890845,219.57760965824127L468.40269175,140.2645162343979L469.5198297083333,294.1665685772896L470.03106233333335,267.1770474910736L470.4665567916667,145.03442561626437L471.7919747083333,314.5270920395851L472.208534625,129.0089122056961L472.8333745,237.79722666740417L473.28780350000005,317.02378606796265L474.04518516666667,201.1420122385025L474.38600691666664,197.9265741109848L474.4996141666667,306.08698493242264L474.55641779166666,85.01933133602142L475.9954429583333,278.0711389183998L476.01437749999997,203.1510910987854L476.90430095833335,458.00520172715187L477.49127175,50.306066036224365L478.002504375,211.99240601062775L478.059308,212.76462590694427L478.15398070833334,178.43716657161713L479.4983331666666,233.7138391137123L479.706613125,307.3723039627075L480.6344056666666,260.8916020989418L481.71367454166665,285.3380209803581L482.56572891666667,272.3047456741333L483.34204512499997,195.24989640712738L483.5881941666667,256.5354145169258L483.60712870833333,273.20106691122055L484.023688625,8.455973029136658L484.32664129166665,342.9354823231697L486.42837541666665,179.18587839603424L486.8260007916667,202.1383694410324L488.13248416666664,162.80171489715576L488.1892877916667,279.6331844329834L488.20822233333337,238.59721040725708L489.1170803333333,318.31477946043015L489.5715093333333,371.74986815452576L492.0708688333333,245.3925377726555L493.8317812083333,283.1921494603157L495.043591875,268.76313304901123L496.27433708333336,297.56307965517044L496.70983154166663,218.12912738323212L498.30033304166665,176.80067038536072L498.35713666666663,272.71177983283997L498.451809375,290.6897804737091L499.7204236666667,222.6503021121025L500.0612454166666,248.15012580156326L501.4813360416667,199.30969989299774L502.2197831666667,206.33704280853271L505.21144074999995,338.475788295269L506.02562604166667,16.373734831809998L507.25637125000003,314.78454089164734L507.3699785,255.05316472053528L507.8622765833333,332.6125762462616L508.25990195833333,105.28896367549896L508.37350920833336,72.96485817432404L511.36516679166664,189.12041997909546L515.89052225,276.43940514326096L516.1366712916666,275.59433048963547L516.7804457083333,34.233789801597595L517.2348747083333,122.13989412784576L517.4999582916666,329.24463963508606L518.0301254583334,317.87820822000504L520.1886632083333,128.89831280708313L520.8513721666667,268.3034083843231L521.5519502083333,278.98802971839905L523.2749935,178.2995126247406L525.7364839166667,225.2129099369049L527.1565745416667,271.74209719896317L528.8606832916666,170.45820271968844L528.9174869166667,338.5659701228142L531.7008645416666,227.0230314731598L531.7766027083334,227.56602233648303L532.7990679583334,293.63882756233215L532.988413375,96.39348900318146L533.6321877916666,265.79615092277527L533.8215332083333,362.0126879811287L534.3138312916667,210.30732309818268L535.1658856666667,270.4982719421387L535.601380125,226.02414107322693L536.56704175,268.53177613019943L537.02147075,245.4957908987999L537.3812270416666,315.7960212826729L538.2711505,107.97161972522736L540.4107537083333,239.0530846118927L541.3385462499999,221.15252381563187L542.872244125,213.18716323375702L543.0805240833333,222.3963744044304L543.4592149166666,383.46469020843506L544.8414364583333,279.8072657585144L545.9207053333333,357.40110343694687L547.9467012916666,37.758379340171814L550.6164716666667,196.3133326768875L551.3549187916667,194.8706260919571L551.9040205,349.7557363510132L553.551325625,249.5421684384346L554.460183625,205.68758165836334L554.4980527083333,325.5230433344841L555.2175652916667,200.91828024387362L555.65305975,141.43966650962832L556.9974122083333,183.4924659729004L559.6671825833333,230.43018198013306L560.87899325,316.2286660671234L562.7345783333334,123.20236778259277L562.8860546666666,294.5111340880394L566.1806649166667,319.9956572651863L566.8055047916666,309.12499791383743L568.206660875,212.4724975824356L568.945108,190.44908201694489L570.5734785833333,154.5645169019699L571.9557001249999,255.11953449249268L572.4290636666667,371.90299993753433L572.6752127083333,167.28035724163055L572.8456235833333,241.98741382360458L574.341452375,221.3225013613701L575.4585903333333,138.71328747272491L577.6171280833332,316.88772803545L577.9011462083333,266.7569420337677L579.396975,230.4043180346489L581.044280125,243.70324975252151L582.7294543333334,288.7727833390236L583.430032375,16.89136838912964L584.0927413333334,309.9845624566078L585.4938974166666,207.0549509525299L587.8417805833333,265.147627055645L588.2394059583334,229.5545316338539L588.7127695,94.72715175151825L589.905645625,278.4361979961395L589.9245801666666,225.6064928174019L590.1896637499999,256.46831011772156L592.518612375,194.61750900745392L592.7268923333334,240.22729760408401L594.6203465,226.26289492845535L595.8889607916666,79.06540548801422L599.6758691250001,265.7991147637367L602.0805559166666,179.96666049957275L602.0994904583333,211.08344411849976L602.6485921666666,220.1400808095932L602.68646125,219.0127066373825L604.560980875,219.41502904891968L607.4011621249999,258.612509727478L608.6129727916666,223.08043903112411L608.7265800416667,71.9351134300232L608.8401872916667,304.3264887332916L608.9159254583334,326.36421686410904L608.9348600000001,194.76706898212433L611.1123322916667,169.77489805221558L614.4258770833334,315.36679631471634L615.4862114166666,242.25990986824036L617.3417965,349.84873002767563L617.5311419166667,250.17825430631638L617.6636837083333,227.8376064300537L618.0045054583334,190.28553879261017L619.0837743333334,332.0978305339813L619.9168941666667,300.4128254055977L621.54526475,238.91626662015915L623.2683080416666,303.4542835354805L623.306177125,201.32034933567047L623.9120824583333,184.64887058734894L624.2529042083333,197.28739774227142L629.6113795,304.6945116519928L630.1036775833333,175.00529205799103L630.9367974166666,254.96278023719788L631.9781972083333,266.40918469429016L633.1521387916666,343.9931429028511L633.3982878333334,309.6370077729225L635.1402656666667,353.26905316114426L635.689367375,290.338096678257L636.4278145000001,219.5988885164261L641.7294861666666,282.22697591781616L643.2253149583333,296.31684786081314L643.7176130416666,274.52223068475723L644.1341729583332,66.20861804485321L644.4939292500001,156.78177392482758L644.9672927916666,72.62784159183502L645.2702454583333,286.46422988176346L645.4974599583334,-39.6601357460022L646.31164525,300.7394558787346L647.5991940833333,218.68420159816742L648.7731356666666,275.92265820503235L652.7115203333333,332.37868613004684L652.8440621249999,84.23738396167755L653.014473,156.77012121677402L653.9612000833333,285.35415744781494L654.0180037083334,295.33353662490845L654.4156290833333,307.93315386772156L655.002599875,351.37617206573486L655.3623561666666,262.86815470457077L657.9374538333334,273.74180322885513L659.4711517083333,384.6623606085777L659.49008625,300.6361520886421L660.1338606666666,97.71591937541962L662.7278928750001,378.6508805155754L662.8225655833334,186.14715552330017L663.3148636666666,201.41200041770935L664.1858525833334,324.71659994125366L664.4698707083332,160.53901231288913L666.0225031250001,271.22973269224167L666.8366884166667,212.83373153209686L667.3289865,252.9413647055626L668.1053027083333,169.01230430603027L668.919488,232.70324534177783L671.4188475,217.0729867219925L671.5513892916666,159.7832075357437L671.6271274583332,204.6912751197815L673.5584507083333,172.23057961463928L674.315832375,353.2089910507202L676.0956792916667,262.9997036457062L676.3607628750001,142.8652993440628L676.701584625,215.70389485359192L682.6470307083333,234.78130316734314L683.6505614166666,66.47946751117706L685.903771875,199.74145805835724L689.3498584583333,304.7635412812233L690.0504365,167.86998426914215L691.8302834166667,140.0841019153595L694.8408755416667,343.40559309720993L695.333173625,132.07772886753082L696.0905552916666,153.70849883556366L696.9615442083334,143.00442254543307L698.1922894166667,194.0209916830063L698.3248312083333,175.3738216161728L698.4763075416666,308.3462423682213L699.3851655416667,220.67433214187622L699.5555764166667,244.76585006713867L700.672714375,134.12404572963715L700.9188634166667,234.77383023500443L703.6643719583333,325.5725420117378L703.8915864583333,287.4100244641304L704.5164263333334,133.83956766128543L705.3116770833334,14.656530976295471L706.5424222916666,211.13729989528656L708.8335018333333,269.78555685281754L710.6133487499999,324.54852229356766L710.8594977916667,354.7844118475914L712.1659811666667,409.3373752236366L713.0369700833334,260.7220551967621L713.9647626249999,366.1784297823906L715.0250969583333,279.06726813316345L717.5244564583334,353.5748100876808L717.6759327916667,160.9297833442688L719.5693869583333,297.4977991580963L719.7966014583334,389.0651590228081L720.1752922916667,280.9784389138222L722.3338300416667,187.30188822746277L722.4095682083333,276.96909672021866L722.9208008333333,266.2832594513893L722.9586699166666,166.66063582897186L724.6627786666667,167.81901633739471L725.9881965833333,344.83948415517807L726.4994292083333,293.5952312350273L726.6319709999999,224.91158610582355L727.1621381666666,-1.6464182138442425L729.7372358333333,305.86669808626175L731.4792136666667,227.2803030014038L731.6117554583334,260.44555670022964L733.3158642083333,244.1990218162537L733.4862750833332,304.3091616630554L733.7134895833334,176.74433207511902L734.073245875,164.04004311561584L734.3951330833333,377.47773146629333L735.4175983333333,238.41289496421814L735.6448128333333,291.7270488142967L736.1181763750001,237.41028076410294L736.8187544166666,335.0553891658783L737.9169578333333,288.50897616147995L738.78794675,235.97970819473267L739.1477030416667,379.58279317617416L739.2802448333334,122.83662474155429L740.15123375,219.37667644023895L741.1358299166667,246.2739131450653L741.1926335416666,106.32494008541107L741.8553425,235.68532532453537L744.3168329166667,348.3903176188469L745.3014290833333,262.30449295043945L745.320363625,337.23619347810745L745.717989,258.6295581459999L746.7593887916667,309.2376238703728L748.4066939166667,240.21214908361435L748.4256284583333,226.63334971666336L749.1451410416666,333.9195034503937L749.80785,305.2792496085167L749.978260875,171.14794170856476L752.6859003333333,192.0468202829361L753.2918056666667,230.53538566827774L755.090587125,197.8233209848404L757.9686374583333,269.1729283928871L758.89643,247.0448157787323L759.5780735,272.25805884599686L760.7520150833333,338.43971556425095L762.2099747916667,213.0230120420456L762.2667784166667,379.5004895925522L763.7058035833334,298.5610074400902L764.1034289583333,249.862364590168L764.2549052916667,262.82896614074707L764.5010543333334,192.2337702512741L764.5389234166668,268.5582227110863L764.6525306666667,162.70454144477847L766.50811575,94.31586182117462L766.5459848333333,312.786253452301L768.1932899583334,286.5815675854683L768.2500935833333,137.9124931097031L768.7613262083333,427.6080614924431L771.9991328333333,275.0203586220741L772.131674625,200.22742664813995L773.381354375,382.5469887852669L773.4760270833333,262.5527209639549L775.4452194166666,405.1411843895912L775.767106625,264.3549642562866L777.0357209166666,172.65174901485446L777.41441175,224.3235803246498L779.4404077083334,108.93717324733734L780.4250038749999,314.7944456934929L780.709022,198.7815282344818L780.993040125,237.14404171705246L781.2959927916667,319.5783889889717L781.5421418333333,414.6072111129761L782.2048507916667,288.52174347639084L782.5646070833333,215.3317174911499L782.6971488749999,212.283318400383L787.1088970833333,215.72269117832184L788.2449695833333,260.8964151740074L788.8130058333334,391.6953778862953L789.172762125,-111.40048885345453L790.8579363333333,335.6730840206146L791.5963834583333,306.57964116334915L791.6721216249999,188.61580705642703L791.8425325,196.3200203180313L791.95613975,312.25126749277115L792.4295032916667,122.3772040605545L793.5087721666666,284.26338797807693L796.2732152499999,365.1196799278259L798.4696220833333,400.10397201776505L799.0944619583333,221.6530836224556L801.1583270000001,117.0538923740387L801.2719342500001,244.0668142437935L801.442345125,181.2929919958115L803.884901,298.7244493365288L804.5286754166667,396.1770347356796L809.735674375,321.7151409983635L810.5498596666666,288.19632893800735L811.8563430416667,416.8088889718056L815.9272695,316.3948184847832L817.8396582083333,168.56585359573367L818.8810579999999,260.8684486746788L819.1650761249999,244.76906722784042L820.4715594999999,236.94586968421936L821.1153339166667,128.2308659553528L822.51649,193.90633916854858L822.8194426666666,119.77495169639587L823.027722625,239.26138943433762L823.6714970416666,173.03355252742767L825.1862603750001,140.44558918476108L826.3412674166667,137.91674888134003L826.3602019583334,258.87099719047546L827.4584053750001,190.80940401554108L827.8370962083334,271.03538578748703L828.6512815000001,237.457499563694L828.7459542083334,211.9704178571701L830.1092412083334,361.75997620821L832.7790115833333,206.39763689041138L833.2145060416667,254.94869565963745L833.2334405833334,331.66609770059586L835.80853825,203.5641542673111L837.62625425,271.84205716848373L838.7433922083333,153.5721114873886L838.9516721666668,174.1856507062912L844.329082,359.5977402329445L846.430816125,207.3747924566269L846.9609832916667,277.21955394744873L847.9266449166666,288.86448508501053L849.7632954583333,273.665376663208L850.35026625,269.5665872693062L850.4449389583334,265.770185649395L850.7668261666666,274.4323275089264L851.7324877916667,257.44321113824844L852.4520003749999,283.0819553732872L856.314646875,323.1892085671425L857.677933875,270.394790828228L859.66606075,103.54982233047485L861.3133658749999,306.6838569045067L861.540580375,318.9822263121605L862.1464857083333,282.15845292806625L862.676652875,344.6178293824196L864.3239580000001,261.5266746878624L864.5133034166666,186.16873836517334L864.6269106666666,53.13286101818085L864.7026488333333,246.59099346399307L865.289619625,208.85012662410736L865.3274887083334,160.11617100238803L865.5925722916667,209.8121336698532L865.7061795416666,244.3782708644867L867.0884010833333,318.7678671479225L871.7652328749999,242.4078485965729L873.4314725416667,330.23813432455063L873.923770625,237.90177172422412L875.627879375,320.6026620268822L876.139112,206.6256753206253L877.4645299166666,221.95863789319992L878.75207875,176.16944825649264L880.3047111666667,295.93149787187576L881.2135691666666,265.51630860567093L881.5165218333334,247.5944942831993L882.0656235416666,122.16436481475833L882.5389870833334,426.36978393793106L882.898743375,177.34951293468478L885.625317375,180.67529714107513L885.7767937083332,309.94154876470566L886.988604375,259.8802230358124L887.499837,150.50238287448886L890.056000125,196.35244524478912L890.1885419166666,399.3039629459381L890.5293636666667,274.09024453163147L892.4796214583333,245.7751772403717L892.9340504583333,226.71907311677933L893.123395875,263.91492253541946L893.3884794583333,169.18440973758698L894.5624210416667,313.68794506788254L896.3612025,243.19435572624207L897.61088225,201.7171493768692L898.462936625,274.0429244041443L898.803758375,185.51887190341952L898.9931037916666,367.86771780252457L899.3907291666666,157.7293417453766L901.4545942083333,49.39284837245941L902.780012125,232.25968247652054L904.6355972083334,293.98919409513474L906.8509385833333,167.2573051452637L907.5704511666665,184.57905566692352L908.1952910416667,224.9817050099373L908.5171782499999,254.9489996433258L909.255625375,233.9421055316925L913.8377844583333,301.10499626398087L914.140737125,330.5710977911949L917.8519072916666,346.6696939468384L918.6850271249999,383.5995069742203L919.3477360833333,199.4896582365036L919.9157723333333,249.37583869695663L920.3702013333334,310.51752185821533L920.9761066666666,147.21383666992188L921.2033211666666,290.86183524131775L922.3393936666666,193.46784269809723L922.8506262916667,55.04248654842377L922.9263644583333,206.64097583293915L923.2103825833333,238.01860278844833L923.7026806666668,265.9454069137573L924.1192405833333,255.55684036016464L924.7440804583333,178.5587093830109L926.3535165,178.82824158668518L927.3570472083334,243.8248432278633L927.432785375,165.28703486919403L927.6789344166666,330.0910568833351L929.19369775,139.25113594532016L929.2694359166666,264.4329614043236L929.7806685416667,345.9900624155998L929.9510794166666,308.0563432574272L931.5983845416666,319.1537237763405L931.7309263333334,217.7859297990799L932.5640461666666,263.45372861623764L933.567576875,329.8287189602852L934.2302858333334,257.0059306025505L934.306024,150.37359511852264L935.4610310416667,312.89586490392685L937.2976815833333,240.91668194532394L938.0171941666666,302.7977547645569L938.8881830833334,261.7173737883568L938.9071176250001,239.05148869752887L940.0242555833333,127.3454627990723L941.6147570833333,115.81429755687714L942.0691860833334,265.0596744418144L942.996978625,215.00219917297363L943.2620622083334,339.780942261219L946.0643743749999,154.1030696630478L946.632410625,236.19067287445068L947.7495485833334,261.9573435783386L948.7152102083332,220.36452209949493L952.6157257916667,317.64555937051773L952.7861366666667,56.41841804981232L953.7517982916667,242.26497626304626L953.789667375,393.5914001464844L956.3458305,245.04690831899643L957.027474,198.90084183216098L958.9777317916667,180.99985039234164L959.2049462916667,184.51643502712253L961.3445495,250.98036593198776L962.6320983333334,246.53060203790665L963.2948072916666,370.89706724882126L966.1349885416668,231.22390872240067L966.3053994166667,227.9754883646965L966.8166320416666,250.55220490694046L967.3846682916667,112.75703227519989L968.0284427083333,150.04291152954104L968.8804970833334,397.07497721910477L969.0319734166667,240.0851852297783L969.5621405833334,282.20329052209854L971.7017437916666,201.00101447105408L972.0046964583333,71.7413238286972L973.1786380416667,262.5256157517433L973.50052525,365.0727397799492L975.1288958333332,296.0888600945473L975.2993067083333,369.44149202108383L978.1205534166667,357.36011630296707L978.8590005416667,270.67242926359177L979.8435967083334,241.44885605573654L985.2967447083333,254.1957533955574L985.6943700833334,230.47691947221756L988.3641404583333,247.840341091156L989.17832575,243.5860133767128L990.1818564583334,389.8948318362236L990.3143982500001,301.2624598145485L990.6930890833333,362.39973521232605L991.1853871666666,418.31391221284866L992.8894959166666,285.80374932289124L993.8740920833334,319.88971894979477L995.0101645833333,308.95309513807297L995.142706375,203.91596472263336L995.6918080833333,324.300142288208L996.6953387916666,238.37198382616043L996.7710769583333,240.594307243824L997.017226,293.1508577466011L997.2823095833334,175.10246551036838L997.7367385833332,405.0060889720917L997.9639530833333,293.23536521196365L998.5698584166666,293.55591601133347L998.7024002083333,167.1084544658661L998.9674837916666,276.31710237264633L1001.107087,372.01767778396606L1001.3153669583332,231.61858087778091L1001.4289742083332,408.9623606801033L1002.2052904166667,311.6805634498596L1002.2810285833333,252.11792355775833L1002.5461121666666,292.5458795428276L1002.981606625,212.7987734079361L1004.9886680416668,260.5162582397461L1005.8028533333332,187.8670952320099L1006.6359731666666,302.63856863975525L1006.9767949166667,203.86996185779572L1007.2797475833333,313.6445007324219L1007.8477838333333,207.11448109149933L1009.1542672083333,333.39485293626785L1011.5210849166666,276.2652731537819L1012.3731392916667,277.2363997101784L1013.0737173333333,250.35692071914673L1013.092651875,282.7700934410095L1013.2819972916667,260.03393745422363L1013.433473625,-33.23842966556549L1013.9068371666666,193.3979264497757L1015.478404125,232.248941719532L1015.5730768333334,183.63417303562164L1015.8570949583333,77.68075978755951L1019.5303960416667,322.43679827451706L1022.1433627916667,114.42767596244812L1027.634379875,265.0782427787781L1028.656845125,261.29080867767334L1029.1302086666667,333.73913979530334L1031.5159609166667,191.4585611820221L1033.0496587916666,123.60154902935028L1033.9774513333334,149.37966978549957L1034.2046658333334,248.81812995672226L1034.564422125,78.42901563644409L1035.6815600833334,341.64258903265L1037.8779669166665,292.7754125595093L1039.3737957083333,299.1616285443306L1040.1690464583332,144.6581951379776L1041.5323334583334,182.9120091199875L1042.4790605416665,239.09688359498978L1043.1796385833334,152.8756848573685L1044.2399729166666,404.1899181008339L1044.5429255833333,382.00734174251556L1045.1109618333335,357.55973225831985L1046.493183375,152.65124356746676L1048.651721125,344.1240585446358L1050.3179607916666,215.52282190322876L1051.605509625,374.98896634578705L1052.173545875,288.09264516830444L1052.9687966249999,195.00184571743011L1053.3285529166667,336.5161067843437L1053.366422,166.38340270519257L1053.48002925,336.88164716959L1056.9261158333334,61.516021847724915L1059.9556425,122.91788971424103L1060.637286,356.6659948825836L1062.8147582916667,73.47712135314941L1062.8904964583332,256.86706072092056L1064.6514088333333,193.87801802158356L1065.692808625,257.634923517704L1066.828881125,296.97036212682724L1068.6276625833334,269.576720058918L1070.4832476666668,232.46416217088702L1072.4903090833332,209.9977663755417L1073.92933425,240.14643794298172L1074.554174125,339.34335774183273L1075.3872939583334,350.34009432792664L1075.463032125,236.95407724380496L1075.6145084583334,290.55562233924866L1076.0689374583333,304.2828924059868L1078.4168206250001,194.05164337158203L1079.3067440833333,255.69535559415817L1080.5564238333334,253.1210190653801L1080.5942929166667,256.7653275132179L1082.620288875,238.9114282131195L1083.7752959166667,334.61544877290726L1084.8166957083333,119.87318909168243L1085.346862875,234.21242302656177L1085.9717027499998,318.8687897324562L1086.42613175,203.70560801029205L1086.6154771666668,207.84956431388855L1088.8308185416668,258.604783475399L1088.9444257916666,268.10184186697006L1089.2852475416666,105.31804478168488L1090.6106654583332,294.2839822769165L1090.7053381666667,381.3169694542885L1091.42485075,187.26181304454803L1092.10649425,306.82951575517654L1092.2011669583333,238.39232540130615L1094.1135556666666,105.61934328079224L1094.4733119583334,255.64421033859253L1096.2720934166666,247.07022374868393L1096.4425042916666,227.1229407787323L1096.593980625,336.52796214818954" style="fill: none;" fill="none"></path></g></g></g></g></g></g><g transform="translate(46, 374)" clip-path="url(#clip_1)"><clipPath id="clip_1"><rect width="1136" height="25"></rect></clipPath><g><g><line x1="0" y1="0" x2="0" y2="5" style="visibility: inherit;" fill="rgb(0, 0, 0)" stroke="rgb(204, 204, 204)" stroke-width="1px"></line><line x1="94.67270833333333" y1="0" x2="94.67270833333333" y2="5" style="visibility: inherit;" fill="rgb(0, 0, 0)" stroke="rgb(204, 204, 204)" stroke-width="1px"></line><line x1="189.34541666666667" y1="0" x2="189.34541666666667" y2="5" style="visibility: inherit;" fill="rgb(0, 0, 0)" stroke="rgb(204, 204, 204)" stroke-width="1px"></line><line x1="284.018125" y1="0" x2="284.018125" y2="5" style="visibility: inherit;" fill="rgb(0, 0, 0)" stroke="rgb(204, 204, 204)" stroke-width="1px"></line><line x1="378.69083333333333" y1="0" x2="378.69083333333333" y2="5" style="visibility: inherit;" fill="rgb(0, 0, 0)" stroke="rgb(204, 204, 204)" stroke-width="1px"></line><line x1="473.36354166666666" y1="0" x2="473.36354166666666" y2="5" style="visibility: inherit;" fill="rgb(0, 0, 0)" stroke="rgb(204, 204, 204)" stroke-width="1px"></line><line x1="568.03625" y1="0" x2="568.03625" y2="5" style="visibility: inherit;" fill="rgb(0, 0, 0)" stroke="rgb(204, 204, 204)" stroke-width="1px"></line><line x1="662.7089583333334" y1="0" x2="662.7089583333334" y2="5" style="visibility: inherit;" fill="rgb(0, 0, 0)" stroke="rgb(204, 204, 204)" stroke-width="1px"></line><line x1="757.3816666666667" y1="0" x2="757.3816666666667" y2="5" style="visibility: inherit;" fill="rgb(0, 0, 0)" stroke="rgb(204, 204, 204)" stroke-width="1px"></line><line x1="852.0543749999999" y1="0" x2="852.0543749999999" y2="5" style="visibility: inherit;" fill="rgb(0, 0, 0)" stroke="rgb(204, 204, 204)" stroke-width="1px"></line><line x1="946.7270833333333" y1="0" x2="946.7270833333333" y2="5" style="visibility: inherit;" fill="rgb(0, 0, 0)" stroke="rgb(204, 204, 204)" stroke-width="1px"></line><line x1="1041.3997916666667" y1="0" x2="1041.3997916666667" y2="5" style="visibility: inherit;" fill="rgb(0, 0, 0)" stroke="rgb(204, 204, 204)" stroke-width="1px"></line><line x1="1136.0725" y1="0" x2="1136.0725" y2="5" style="visibility: inherit;" fill="rgb(0, 0, 0)" stroke="rgb(204, 204, 204)" stroke-width="1px"></line></g><g transform="translate(0, 8)"><text x="0" y="0" dx="0em" dy="0.95em" style="text-anchor: middle; visibility: hidden; font-family: &quot;Helvetica Neue&quot;, sans-serif; font-size: 12.5px; font-weight: 200;" fill="rgb(50, 49, 63)" stroke="none" stroke-width="1px">-50k</text><text x="94.67270833333333" y="0" dx="0em" dy="0.95em" style="text-anchor: middle; visibility: inherit; font-family: &quot;Helvetica Neue&quot;, sans-serif; font-size: 12.5px; font-weight: 200;" fill="rgb(50, 49, 63)" stroke="none" stroke-width="1px">0</text><text x="189.34541666666667" y="0" dx="0em" dy="0.95em" style="text-anchor: middle; visibility: inherit; font-family: &quot;Helvetica Neue&quot;, sans-serif; font-size: 12.5px; font-weight: 200;" fill="rgb(50, 49, 63)" stroke="none" stroke-width="1px">50k</text><text x="284.018125" y="0" dx="0em" dy="0.95em" style="text-anchor: middle; visibility: inherit; font-family: &quot;Helvetica Neue&quot;, sans-serif; font-size: 12.5px; font-weight: 200;" fill="rgb(50, 49, 63)" stroke="none" stroke-width="1px">100k</text><text x="378.69083333333333" y="0" dx="0em" dy="0.95em" style="text-anchor: middle; visibility: inherit; font-family: &quot;Helvetica Neue&quot;, sans-serif; font-size: 12.5px; font-weight: 200;" fill="rgb(50, 49, 63)" stroke="none" stroke-width="1px">150k</text><text x="473.36354166666666" y="0" dx="0em" dy="0.95em" style="text-anchor: middle; visibility: inherit; font-family: &quot;Helvetica Neue&quot;, sans-serif; font-size: 12.5px; font-weight: 200;" fill="rgb(50, 49, 63)" stroke="none" stroke-width="1px">200k</text><text x="568.03625" y="0" dx="0em" dy="0.95em" style="text-anchor: middle; visibility: inherit; font-family: &quot;Helvetica Neue&quot;, sans-serif; font-size: 12.5px; font-weight: 200;" fill="rgb(50, 49, 63)" stroke="none" stroke-width="1px">250k</text><text x="662.7089583333334" y="0" dx="0em" dy="0.95em" style="text-anchor: middle; visibility: inherit; font-family: &quot;Helvetica Neue&quot;, sans-serif; font-size: 12.5px; font-weight: 200;" fill="rgb(50, 49, 63)" stroke="none" stroke-width="1px">300k</text><text x="757.3816666666667" y="0" dx="0em" dy="0.95em" style="text-anchor: middle; visibility: inherit; font-family: &quot;Helvetica Neue&quot;, sans-serif; font-size: 12.5px; font-weight: 200;" fill="rgb(50, 49, 63)" stroke="none" stroke-width="1px">350k</text><text x="852.0543749999999" y="0" dx="0em" dy="0.95em" style="text-anchor: middle; visibility: inherit; font-family: &quot;Helvetica Neue&quot;, sans-serif; font-size: 12.5px; font-weight: 200;" fill="rgb(50, 49, 63)" stroke="none" stroke-width="1px">400k</text><text x="946.7270833333333" y="0" dx="0em" dy="0.95em" style="text-anchor: middle; visibility: inherit; font-family: &quot;Helvetica Neue&quot;, sans-serif; font-size: 12.5px; font-weight: 200;" fill="rgb(50, 49, 63)" stroke="none" stroke-width="1px">450k</text><text x="1041.3997916666667" y="0" dx="0em" dy="0.95em" style="text-anchor: middle; visibility: inherit; font-family: &quot;Helvetica Neue&quot;, sans-serif; font-size: 12.5px; font-weight: 200;" fill="rgb(50, 49, 63)" stroke="none" stroke-width="1px">500k</text><text x="1136.0725" y="0" dx="0em" dy="0.95em" style="text-anchor: middle; visibility: hidden; font-family: &quot;Helvetica Neue&quot;, sans-serif; font-size: 12.5px; font-weight: 200;" fill="rgb(50, 49, 63)" stroke="none" stroke-width="1px">550k</text></g><line x1="0" y1="0" x2="1136.0725" y2="0" fill="rgb(0, 0, 0)" stroke="rgb(204, 204, 204)" stroke-width="1px"></line></g></g></g></g></svg>