<svg viewBox="0 0 1183.0078125 400" xmlns="http://www.w3.org/2000/svg"><g><g><g><g><g><line x1="28.46875" y1="374" x2="23.46875" y2="374" style="visibility: inherit;" fill="rgb(0, 0, 0)" stroke="rgb(204, 204, 204)" stroke-width="1px"></line><line x1="28.46875" y1="336.6" x2="23.46875" y2="336.6" style="visibility: inherit;" fill="rgb(0, 0, 0)" stroke="rgb(204, 204, 204)" stroke-width="1px"></line><line x1="28.46875" y1="299.2" x2="23.46875" y2="299.2" style="visibility: inherit;" fill="rgb(0, 0, 0)" stroke="rgb(204, 204, 204)" stroke-width="1px"></line><line x1="28.46875" y1="261.8" x2="23.46875" y2="261.8" style="visibility: inherit;" fill="rgb(0, 0, 0)" stroke="rgb(204, 204, 204)" stroke-width="1px"></line><line x1="28.46875" y1="224.4" x2="23.46875" y2="224.4" style="visibility: inherit;" fill="rgb(0, 0, 0)" stroke="rgb(204, 204, 204)" stroke-width="1px"></line><line x1="28.46875" y1="187" x2="23.46875" y2="187" style="visibility: inherit;" fill="rgb(0, 0, 0)" stroke="rgb(204, 204, 204)" stroke-width="1px"></line><line x1="28.46875" y1="149.6" x2="23.46875" y2="149.6" style="visibility: inherit;" fill="rgb(0, 0, 0)" stroke="rgb(204, 204, 204)" stroke-width="1px"></line><line x1="28.46875" y1="112.19999999999999" x2="23.46875" y2="112.19999999999999" style="visibility: inherit;" fill="rgb(0, 0, 0)" stroke="rgb(204, 204, 204)" stroke-width="1px"></line><line x1="28.46875" y1="74.80000000000001" x2="23.46875" y2="74.80000000000001" style="visibility: inherit;" fill="rgb(0, 0, 0)" stroke="rgb(204, 204, 204)" stroke-width="1px"></line><line x1="28.46875" y1="37.39999999999998" x2="23.46875" y2="37.39999999999998" style="visibility: inherit;" fill="rgb(0, 0, 0)" stroke="rgb(204, 204, 204)" stroke-width="1px"></line><line x1="28.46875" y1="0" x2="23.46875" y2="0" style="visibility: inherit;" fill="rgb(0, 0, 0)" stroke="rgb(204, 204, 204)" stroke-width="1px"></line></g><g transform="translate(18.46875, 0)"><text x="0" y="374" dx="0em" dy="0.3em" style="text-anchor: end; visibility: hidden; font-family: &quot;Helvetica Neue&quot;, sans-serif; font-size: 12.5px; font-weight: 200;" fill="rgb(50, 49, 63)" stroke="none" stroke-width="1px">26</text><text x="0" y="336.6" dx="0em" dy="0.3em" style="text-anchor: end; visibility: inherit; font-family: &quot;Helvetica Neue&quot;, sans-serif; font-size: 12.5px; font-weight: 200;" fill="rgb(50, 49, 63)" stroke="none" stroke-width="1px">28</text><text x="0" y="299.2" dx="0em" dy="0.3em" style="text-anchor: end; visibility: inherit; font-family: &quot;Helvetica Neue&quot;, sans-serif; font-size: 12.5px; font-weight: 200;" fill="rgb(50, 49, 63)" stroke="none" stroke-width="1px">30</text><text x="0" y="261.8" dx="0em" dy="0.3em" style="text-anchor: end; visibility: inherit; font-family: &quot;Helvetica Neue&quot;, sans-serif; font-size: 12.5px; font-weight: 200;" fill="rgb(50, 49, 63)" stroke="none" stroke-width="1px">32</text><text x="0" y="224.4" dx="0em" dy="0.3em" style="text-anchor: end; visibility: inherit; font-family: &quot;Helvetica Neue&quot;, sans-serif; font-size: 12.5px; font-weight: 200;" fill="rgb(50, 49, 63)" stroke="none" stroke-width="1px">34</text><text x="0" y="187" dx="0em" dy="0.3em" style="text-anchor: end; visibility: inherit; font-family: &quot;Helvetica Neue&quot;, sans-serif; font-size: 12.5px; font-weight: 200;" fill="rgb(50, 49, 63)" stroke="none" stroke-width="1px">36</text><text x="0" y="149.6" dx="0em" dy="0.3em" style="text-anchor: end; visibility: inherit; font-family: &quot;Helvetica Neue&quot;, sans-serif; font-size: 12.5px; font-weight: 200;" fill="rgb(50, 49, 63)" stroke="none" stroke-width="1px">38</text><text x="0" y="112.19999999999999" dx="0em" dy="0.3em" style="text-anchor: end; visibility: inherit; font-family: &quot;Helvetica Neue&quot;, sans-serif; font-size: 12.5px; font-weight: 200;" fill="rgb(50, 49, 63)" stroke="none" stroke-width="1px">40</text><text x="0" y="74.80000000000001" dx="0em" dy="0.3em" style="text-anchor: end; visibility: inherit; font-family: &quot;Helvetica Neue&quot;, sans-serif; font-size: 12.5px; font-weight: 200;" fill="rgb(50, 49, 63)" stroke="none" stroke-width="1px">42</text><text x="0" y="37.39999999999998" dx="0em" dy="0.3em" style="text-anchor: end; visibility: inherit; font-family: &quot;Helvetica Neue&quot;, sans-serif; font-size: 12.5px; font-weight: 200;" fill="rgb(50, 49, 63)" stroke="none" stroke-width="1px">44</text><text x="0" y="0" dx="0em" dy="0.3em" style="text-anchor: end; visibility: hidden; font-family: &quot;Helvetica Neue&quot;, sans-serif; font-size: 12.5px; font-weight: 200;" fill="rgb(50, 49, 63)" stroke="none" stroke-width="1px">46</text></g><line x1="28.46875" y1="0" x2="28.46875" y2="374" fill="rgb(0, 0, 0)" stroke="rgb(204, 204, 204)" stroke-width="1px"></line></g></g><g transform="translate(28, 0)" clip-path="url(#clip_0)"><clipPath id="clip_0"><rect width="1154" height="373"></rect></clipPath><g><g><g><line x1="0" y1="0" x2="0" y2="374" fill="rgb(0, 0, 0)" stroke="rgb(60, 60, 60)" stroke-width="1px" opacity="0.25"></line><line x1="115.454125" y1="0" x2="115.454125" y2="374" fill="rgb(0, 0, 0)" stroke="rgb(60, 60, 60)" stroke-width="1px" opacity="0.25"></line><line x1="230.90825" y1="0" x2="230.90825" y2="374" fill="rgb(0, 0, 0)" stroke="rgb(60, 60, 60)" stroke-width="1px" opacity="0.25"></line><line x1="346.362375" y1="0" x2="346.362375" y2="374" fill="rgb(0, 0, 0)" stroke="rgb(60, 60, 60)" stroke-width="1px" opacity="0.25"></line><line x1="461.8165" y1="0" x2="461.8165" y2="374" fill="rgb(0, 0, 0)" stroke="rgb(60, 60, 60)" stroke-width="1px" opacity="0.25"></line><line x1="577.270625" y1="0" x2="577.270625" y2="374" fill="rgb(0, 0, 0)" stroke="rgb(60, 60, 60)" stroke-width="1px" opacity="0.25"></line><line x1="692.72475" y1="0" x2="692.72475" y2="374" fill="rgb(0, 0, 0)" stroke="rgb(60, 60, 60)" stroke-width="1px" opacity="0.25"></line><line x1="808.178875" y1="0" x2="808.178875" y2="374" fill="rgb(0, 0, 0)" stroke="rgb(60, 60, 60)" stroke-width="1px" opacity="0.25"></line><line x1="923.633" y1="0" x2="923.633" y2="374" fill="rgb(0, 0, 0)" stroke="rgb(60, 60, 60)" stroke-width="1px" opacity="0.25"></line><line x1="1039.087125" y1="0" x2="1039.087125" y2="374" fill="rgb(0, 0, 0)" stroke="rgb(60, 60, 60)" stroke-width="1px" opacity="0.25"></line><line x1="1154.54125" y1="0" x2="1154.54125" y2="374" fill="rgb(0, 0, 0)" stroke="rgb(60, 60, 60)" stroke-width="1px" opacity="0.25"></line></g><g><line x1="0" y1="374" x2="1154.54125" y2="374" fill="rgb(0, 0, 0)" stroke="rgb(60, 60, 60)" stroke-width="1px" opacity="0.25"></line><line x1="0" y1="336.6" x2="1154.54125" y2="336.6" fill="rgb(0, 0, 0)" stroke="rgb(60, 60, 60)" stroke-width="1px" opacity="0.25"></line><line x1="0" y1="299.2" x2="1154.54125" y2="299.2" fill="rgb(0, 0, 0)" stroke="rgb(60, 60, 60)" stroke-width="1px" opacity="0.25"></line><line x1="0" y1="261.8" x2="1154.54125" y2="261.8" fill="rgb(0, 0, 0)" stroke="rgb(60, 60, 60)" stroke-width="1px" opacity="0.25"></line><line x1="0" y1="224.4" x2="1154.54125" y2="224.4" fill="rgb(0, 0, 0)" stroke="rgb(60, 60, 60)" stroke-width="1px" opacity="0.25"></line><line x1="0" y1="187" x2="1154.54125" y2="187" fill="rgb(0, 0, 0)" stroke="rgb(60, 60, 60)" stroke-width="1px" opacity="0.25"></line><line x1="0" y1="149.6" x2="1154.54125" y2="149.6" fill="rgb(0, 0, 0)" stroke="rgb(60, 60, 60)" stroke-width="1px" opacity="0.25"></line><line x1="0" y1="112.19999999999999" x2="1154.54125" y2="112.19999999999999" fill="rgb(0, 0, 0)" stroke="rgb(60, 60, 60)" stroke-width="1px" opacity="0.25"></line><line x1="0" y1="74.80000000000001" x2="1154.54125" y2="74.80000000000001" fill="rgb(0, 0, 0)" stroke="rgb(60, 60, 60)" stroke-width="1px" opacity="0.25"></line><line x1="0" y1="37.39999999999998" x2="1154.54125" y2="37.39999999999998" fill="rgb(0, 0, 0)" stroke="rgb(60, 60, 60)" stroke-width="1px" opacity="0.25"></line><line x1="0" y1="0" x2="1154.54125" y2="0" fill="rgb(0, 0, 0)" stroke="rgb(60, 60, 60)" stroke-width="1px" opacity="0.25"></line></g></g></g><g><g><line x1="0" y1="860.2" x2="1154.54125" y2="860.2" fill="rgb(0, 0, 0)" stroke="rgb(153, 153, 153)" stroke-width="1.5px"></line></g></g><g><g><line x1="115.454125" y1="0" x2="115.454125" y2="374" fill="rgb(0, 0, 0)" stroke="rgb(153, 153, 153)" stroke-width="1.5px"></line></g></g><g><g><g><g><g><path stroke="rgb(255, 112, 67)" stroke-width="2px" d="M139.8726724375,-12.452170597221027L141.0272136875,4.472413388470329L142.0663008125,11.838452974306676L142.87447968749998,12.072654220555819L146.45355756249998,9.9249306432298L148.01218825,-1.8061564979997229L149.33991068749998,-15.327719213787304L149.39763774999997,1.2571492935225024L151.3026308125,-4.8942813843348745L152.1108096875,2.9050477694750043L152.5726261875,16.92054511590152L152.86126149999998,25.55605706442674L152.976715625,18.75916452120208L153.669440375,22.795244095091107L154.246711,21.309999413956746L156.7289746875,10.20965976232793L157.1907911875,16.844760084227232L157.6526076875,10.017110615832792L159.1535113125,19.845345030165163L159.67305487500002,29.944452755233613L159.90396312500002,39.3881744104761L160.01941725,48.05275558794318L160.827596125,50.064398270123036L160.94305025,59.38365002903083L161.3471396875,49.62370535443256L161.8089561875,59.51514651179639L162.15531856249999,51.67405424251638L163.7716763125,56.71573209529117L167.98575187499998,60.445062163407556L169.8907449375,60.408099188334404L170.063926125,70.66381272999791L171.0452861875,88.74949826704534L171.56482975,91.85414374835977L171.6225568125,93.196628114997L171.9689191875,84.33852453219674L172.3152815625,90.32750876382102L173.3543686875,102.20784519625323L173.52754987499998,88.70761355465856L174.0470934375,92.95418879298217L176.8757195,93.98866457416494L177.04890068749998,87.86267707618225L177.39526306250002,90.14949550036329L177.7416254375,79.82553421540382L178.607531375,80.01460491200936L178.95389375,74.90177822873363L179.2425290625,88.03562265196496L182.2443363125,94.27418787591387L182.532971625,95.73316635883884L182.5906986875,96.4286372499572L183.6297858125,84.7655478472056L184.380237625,82.60911333801937L187.3243178125,83.06841456880551L188.305677875,88.32673670484115L189.46021912499998,90.99639422307263L191.4806663125,88.73061590369099L191.6538475,96.71436334066016L192.462026375,96.92934195093187L192.692934625,99.26850931998132L195.463833625,91.66628065709614L195.86792306249998,100.931602628434L197.13791843750002,103.71258458274485L197.8306431875,101.96565571726558L198.4079138125,104.74927944404709L200.1397256875,109.6432607179782L200.774723375,111.93152051069688L201.236539875,120.98328704654364L201.58290225000002,132.27412009553356L203.43016824999998,143.24613673393767L205.1042530625,155.46722181550487L206.0278860625,158.11883743756172L206.95151906249998,157.88923100834745L207.1824273125,145.12061684943413L208.163787375,143.98510107394353L210.1842345625,137.15695199044737L212.6087711875,136.467725493088L213.12831475,132.23827627384992L213.474677125,138.62075787109723L213.76331243750002,137.79372160342774L214.167401875,141.80908170011128L214.68694543750001,124.94077208488298L215.4951243125,130.50355261722225L215.6105784375,119.56229836324496L215.78375962500002,125.84164879982501L216.30330318749998,122.26955813746807L218.32375037499997,121.86759410943677L219.709199875,122.65814968244709L220.92146818749998,125.03688929794609L221.9605553125,120.49939593583096L222.480098875,122.52733385247544L223.2305506875,120.38648043541707L223.403731875,125.08074132302255L223.86554837499997,129.11139611659652L226.174630875,137.77758787564304L227.1559909375,126.84779920567081L227.73326156250002,129.92048806895136L227.90644275,117.40718849166518L229.060984,108.31918449033958L229.984617,114.99259176821266L231.023704125,112.40366542235205L231.716428875,83.59540644283504L232.6977889375,81.52358132858848L233.0441513125,81.42682542122088L235.180052625,89.24566504853055L235.3532338125,98.15971221549222L235.410960875,99.25588099995304L235.872777375,93.88555163409961L236.103685625,105.13829979253535L236.5077750625,108.15520796723968L239.56730937499998,109.64350949936983L239.9713988125,108.91894411225508L240.490942375,110.34707099982234L241.76093775,115.42895660699958L241.991846,116.9759673912248L242.45366249999998,124.81933087111335L242.915479,130.75968767211586L243.14638725,131.17385697067715L244.3009285,125.08265095910022L244.58956381250002,121.89814239718402L244.647290875,126.33257727640807L244.9359261875,134.1298692833603L245.6286509375,132.62053594034336L245.801832125,126.31718739652493L246.0904674375,120.0614367526776L247.18728162500003,120.69047853591678L248.11091462500002,130.6427587659516L248.68818525,139.35105347906878L249.38091,138.2277697734982L250.88181362499998,143.25736731867624L251.4013571875,146.13107172072756L253.421804375,153.41821464299014L253.4795314375,154.21373753483874L253.5949855625,156.67078100062832L256.1349763125,163.99734383249583L256.5967928125,168.74342506507344L257.116336375,173.82356889186616L257.2317905,184.46136568975575L257.5204258125,194.5278662458239L258.963602375,192.20891271391523L259.0213294375,192.40860176415782L259.5986000625,172.9702970773514L259.7140541875,166.74867066450275L260.00268950000003,172.5850045260478L260.810868375,173.71797747138362L261.15723075,180.35130056181507L261.6767743125,178.52692884953257L262.54268025,172.5369432483193L262.889042625,170.53163039632727L265.9485769375,177.15548017880215L266.929937,178.54182714513618L270.509014875,184.2208077432046L270.7976501875,187.06072503753143L271.548102,181.43845777713062L273.6840033125,183.2588560203208L274.49218218749996,184.27208669648454L276.51262937499996,181.648196645623L281.3039755625,183.9853621168512L282.3430626875,187.28234603131463L282.6894250625,191.45418983851428L284.0748745625,202.628502665959L286.7880465,189.2392326257686L287.249863,179.79147405672728L289.32803724999997,177.82724995765753L290.25167025,164.7115531445856L290.42485143749997,162.09196340627048L290.8866679375,165.6258490327946L291.05984912499997,162.7134875111828L292.676206875,156.18754193161678L294.40801875,153.47579904768222L297.64073425,153.20710285089956L297.987096625,154.6791230942063L298.91072962500004,154.71911098304977L299.94981674999997,163.97104811451217L300.00754381250005,166.551987605967L301.9702639375,168.85592492876475L302.5475345625,174.8526785356885L302.72071575,177.12225593973312L302.7784428125,178.4439324926752L302.8938969375,174.70808352019134L302.95162400000004,175.2996422326601L304.3948005625,174.30256801912248L306.29979362499995,171.0717556306374L308.608876125,166.81692102911575L310.39841506249996,168.38155789406335L311.95704575,161.98943846231558L312.2456810625,165.20277002426383L313.5156764375,165.70930999175332L314.612490625,167.91805391928793L315.4783965625,168.8715503744465L316.4020295625,164.45031697901737L318.07611437500003,158.2547262415308L318.2492955625,146.51021884859293L319.692472125,148.5632615200293L322.17473581250005,144.87486674331666L323.3292770625,145.8358118825985L324.3683641875,151.0269710873406L324.48381831250003,149.5754949901486L324.5992724375,145.4361546632037L324.9456348125,136.6431176431497L326.5619925625,144.58476616147766L327.3701714375,139.61414870119458L330.6028869375,134.3819618456117L330.8337951875,135.05393486520717L331.468792875,141.8885460565446L333.25833181250005,151.47948640055208L333.7201483125,157.3758652174657L334.47060012500003,153.54200924438615L334.75923543749997,159.10455164950446L335.6828684375,157.1582818451261L335.97150374999995,158.34266051009695L336.08695787500005,145.28858284278925L336.66422850000004,134.91208433534842L338.5692215625,133.26186135621217L339.2619463125,133.87743785963832L342.26375356249997,129.50540662502507L342.89875125,131.3883606670962L343.8801113125,125.48439510063636L345.4964690625,131.54287686073562L346.9973726875,132.55905433156516L347.69009743749996,126.14209133939275L348.325095125,128.94973816337267L348.4982763125,132.57430498706142L351.78871887500003,137.02498713155552L352.0773541875,133.30981962420762L352.71235187499997,134.7424931568423L356.92642743749997,123.26289027092761L357.56142512499997,125.87300251012178L357.61915218750005,121.58190750947222L357.73460631250003,121.3122694708342L358.02324162499997,120.28432429021373L358.0809686875,120.30707224487392L359.52414525,116.40830021649435L359.8127805625,120.63649045953449L359.98596175,124.61988532783226L360.44777825,126.37291108600357L361.60231949999996,125.24251819541686L361.7755006875,116.89831756623914L361.83322775,116.8606306473747L362.69913368749997,121.21766674311684L363.9691290625,121.24401462960688L364.719580875,104.84284819709671L364.835035,122.29081016115083L367.721388125,130.0375964413765L369.10683762499997,126.30387766703436L369.5109270625,128.3692884985009L369.8572894375,126.20916811098058L371.2427389375,131.4072582822017L371.41592012499996,133.816569792047L374.8218168125,134.45008155230693L375.803176875,142.29505257242437L377.0154451875,144.25935245879666L377.188626375,147.86546506594019L379.7863441875,146.78499205342806L379.959525375,156.1300125695055L380.88315837500005,158.3366298021114L382.6726973125,158.05869010293247L384.2890550625,156.19311371406715L384.7508715625,147.58670230844132L384.9817798125,146.63631001027275L385.44359631249995,142.13035150441547L386.07859399999995,148.36327233552308L387.579497625,150.11711505877935L387.86813293750004,151.25263296563952L388.7917659375,162.10134089175847L389.7153989375,147.79417975230018L390.17721543749997,148.84568426716953L390.696759,151.39165326697332L391.2163025625,148.64701467864683L391.85130024999995,145.13445405519943L391.9090273125,148.9473645451145L392.6017520625,146.08275163283773L392.7172061875,143.04377358126155L394.91083456250004,153.26726765712655L395.6035593125,153.29054612822412L396.7003735,149.56279539029777L398.0280959375,152.1293439770586L399.1826371875,158.06081960684952L401.9535361875,158.0487793991876L402.47307975,160.11063716746688L402.6462609375,166.96139595790132L405.70579525,164.71372870675066L405.87897643749994,174.44702484131855L407.03351768749997,184.80978099184543L407.1489718125,184.55881436189176L407.20669887500003,181.1449269128733L410.2662331875,185.13870197202812L411.4207744375,178.3176610262581L411.8825909375,184.74399405008813L413.672129875,182.21773113369977L414.6534899375,184.25507392742566L415.6925770625,182.34899554326347L416.1543935625,183.64072702999835L417.94393249999996,183.258758708516L420.830285625,190.0371085041428L422.5043704375,183.64215359048447L423.139368125,183.65708126467263L424.063001125,187.93199622537853L424.87118,190.51387577588474L426.08344831249997,189.81584441944176L428.3925308125,200.44119638089876L429.66252618749996,207.2011868487767L429.9511615,211.41689395567138L432.08706281250005,206.81271318656624L432.7220605,204.75049685453166L433.87660175,205.86311120080808L433.992055875,193.8547164779383L435.839321875,200.11454286709724L437.224771375,201.89357142749842L437.917496125,199.37269890180917L438.03295025,203.90273577325252L438.37931262499995,192.50578655858166L440.5152139375,199.5175394309811L442.1315716875,200.01302317991974L442.2470258125,194.3326324104882L442.47793406249997,200.0394172177668L443.34384,201.296111249708L445.7106495625,197.41737238292413L445.88383074999996,210.2784950585582L448.9433650625,210.37308157384135L449.11654625,206.17753345941676L449.69381687500004,206.49980835815026L450.732904,202.6814994042018L450.79063106250004,206.900931066882L451.771991125,191.7917746244642L451.9451723125,193.66743008272806L453.9078924375,197.46201154857957L454.02334656249997,198.80626444645986L454.427436,206.67554862289933L456.50561024999996,201.9566158862904L457.7178785625,198.0311689244591L459.1033280625,203.31692423690077L459.391963375,205.61474099743194L459.73832575,208.59910397901294L461.2969564375,212.49458859928228L462.4514976875,210.65396809501928L462.74013299999996,203.63534833822575L463.60603893750005,206.86432899013366L463.89467425,211.31328728721348L466.3769379375,218.86296763647815L467.8201145,206.45019367272357L467.935568625,210.03417134448543L468.859201625,212.52686541347632L468.97465575,207.49237048547474L469.32101812499997,195.341712493789L469.43647225,191.83569640881308L470.475559375,192.14278372586676L471.8032818125,191.01258818210113L472.32282537500004,190.87278565930782L473.41963956250004,197.69079833767705L474.05463725000004,194.41410955398425L474.170091375,186.82727785247292L474.51645375,199.57032778170452L475.2669055625,209.83896002178662L476.30599268749995,208.79132997924575L478.557348125,210.55433872950488L479.8850705625,208.86506221949517L480.173705875,206.23749935880127L481.55915537500005,208.3927149941025L482.1941530625,207.44401811335135L482.82915075,196.45404470766397L483.2332401875,202.1279111804253L483.5796025625,205.42609123321554L484.9650520625,204.15579380546686L488.37094874999997,197.30362174416422L490.449123,195.59834083797833L490.5068500625,201.99306954166664L490.7377583125,206.09841268371844L491.8922995625,199.62895144724325L491.95002662499996,205.52283262926142L492.0077536875,210.9020129536112L492.4695701875,217.39413349362115L495.0095609375,215.46297603692295L495.413650375,208.95909383211733L495.58683156250004,215.65247840612963L496.68364575000004,211.2580141316733L499.800907125,210.13569734676338L500.3204506875,214.6939145667064L500.4359048125,215.61278055437074L500.66681306249995,201.56572184811054L501.0131754375,190.70945353120544L501.186356625,186.89389695293985L501.5904460625,200.50180670512262L502.0522625625,190.36246508648796L502.22544375,196.33784790434692L502.9181685,207.80676606171366L504.4767991875,206.5939290439016L504.70770743749995,210.05944938913063L505.34270512499995,214.36988187647074L505.97770281249996,211.7165825016109L509.90314306249996,209.01774896046652L510.71132193750003,206.97851963703644L511.1731384375,208.63639664563442L511.9813173125,202.79367529963267L512.039044375,192.71946066140714L513.539948,189.1205955158154L514.348126875,190.6033171870119L515.7913034375,189.99632349658754L517.4653882499999,193.6075415096641L517.6385694375,201.18186590552133L519.1394730625,209.3908806357028L520.1785601875,214.11529009161032L520.4094684375,208.973974278678L521.852645,197.68520859095824L524.85445225,187.95841223736178L525.7203581875,185.57732213342547L526.1821746875,178.35162503182357L526.23990175,185.12246357641672L527.509897125,185.2630975047849L528.54898425,190.9391576637681L530.85806675,186.40218613500042L532.0703350625,190.54068299330643L533.859874,185.50361297429242L536.9194083125,197.33177825471506L537.554406,194.01754978271077L538.593493125,185.06731815495596L539.17076375,185.97353934340225L539.2284908125,196.97647369875693L540.3253050000001,196.70931703432396L541.6530274375,193.2130368593323L542.749841625,188.53107622063382L544.4816535,187.62584762748904L545.0011970625001,189.5156936986222L545.17437825,193.20887797382045L545.5784676875,200.4457166236603L546.1557383125,206.4852368702388L546.3289195,217.9145570452251L546.6175548125,220.7433133915467L547.1948254375,223.42610321858922L548.5802749375,222.0613790561651L549.0998185,215.32385773760674L550.1966326874999,210.72067302327213L551.1779927499999,210.48216340463586L554.757070625,210.28978352242095L556.7775178125,207.08900647226025L557.7588778749999,205.59539116236238L558.3361484999999,202.11338196964886L558.6247838125,211.30889608558516L559.2597815,215.14523420149135L559.606143875,215.83202613228346L560.0102333125,212.67606711670186L561.0493204375,213.2747152924788L561.33795575,206.84819850386302L561.6265910625,213.5492965896041L562.6656781875,219.67313428271748L563.300675875,219.3408816896969L563.4738570625,218.03325164075878L564.6283983124999,216.01201719350343L565.0902148125,212.2071639753637L565.6674854375,215.70572693477195L567.687932625,208.73518251323182L567.9765679375,204.72175182842037L571.4979187499999,209.6957844133263L571.5556458125,205.8584678789689L573.4029118125,208.68670753377376L575.8851755000001,208.5056860758606L576.346992,211.52306981398834L576.8088084999999,218.21873141128236L576.8665355625,225.61904940156273L578.8292556875,233.99395416692718L579.464253375,230.85819118996977L580.1569781249999,228.6683289665654L581.1383381874999,229.45264682811288L584.6019619374999,223.4416196863247L585.9874114375,228.09077857908514L587.7192233125,230.55810947939318L587.9501315625,238.55196803791048L588.7583104375,242.57580355107203L589.7396705,246.45573042388315L590.086032875,238.6677204077736L592.5105695,237.9981652117354L593.4342025,238.71411739015764L594.0692001875,237.78916093563294L594.58874375,237.5426393563804L595.05056025,233.3270807796416L596.2051015,240.81817130593402L596.320555625,248.3258514625433L596.4937368125001,243.5132463879842L596.6091909375,243.09096302864234L596.9555533125,243.41758343320097L598.1100945625,251.13384087809658L598.28327575,244.74343771823675L598.5719110624999,246.46720684858423L599.091454625,241.24544686611938L603.132349,241.32589053346956L604.2868902499999,242.72765789749707L604.3446173125,245.72442433114222L604.4600714375,235.2687229304335L605.2682503125,229.82692208302086L605.4991585624999,229.07378036038193L606.018702125,231.65509225608082L606.0764291875,232.92434259224788L606.3650645,229.1627105672401L606.6536998125,234.28768842165172L607.51960575,235.81805117457708L609.3091446875001,236.2935409716052L610.0018694375,231.34317701408185L610.4059588749999,231.9904156421019L610.6945941875,225.61423229463173L611.5027730625,209.5239904032644L612.022316625,207.30614016622977L613.52322025,205.41319367236616L613.9273096874999,215.21134763336067L613.9850367500001,220.01040800597278L614.5045803125,223.3350114624012L616.6982086875,225.20025600653582L617.1600251875,219.55055722431538L617.21775225,218.64534499058237L617.4486605000001,220.80316679583325L619.2959265,217.6430398802402L622.0090984374999,220.71029664953102L622.2400066875,219.6658632617429L623.567729125,207.14582735014523L624.6068162500001,218.86517654834458L624.7799974375,228.27258595352413L625.99226575,233.30281309433752L626.6272634374999,233.88178662813746L628.0127129375,235.17981857297565L628.416802375,221.4494610584813L629.3981624375,230.32952203587527L629.5136165625,227.63884729051367L629.68679775,226.6143759320244L630.8990660625,232.72955821255545L631.0145201875,231.27708453965604L631.3031554999999,232.28310253578604L631.9381531875,234.1159541762512L632.6308779375,231.47459895748017L633.6122379999999,230.56222342588714L634.651325125,229.69673047713138L634.9976875000001,247.55031473465993L635.574958125,245.52247904181348L636.61404525,252.99255329835177L636.6717723125,238.01718336623009L638.2304029999999,240.906436652094L638.6922195000001,233.60923210965632L639.269490125,236.08520351237507L639.9044878125001,232.1705152038823L641.116756125,239.1058915502065L642.15584325,241.4679203588924L644.00310925,247.5687019252552L644.4071986875,258.9737258066252L647.4090059375,240.51220361536892L647.5244600625,239.68186006225892L648.1017306875,248.0676268535181L648.505820125,245.1484149243685L650.0644508125,246.5160601561426L651.276719125,245.48623075766295L651.85398975,257.8119279646506L652.77762275,245.2033959990324L652.893076875,252.58319976483085L653.2971663124999,255.39494482610792L655.1444323125,247.75910286199962L656.0680653125,247.6642857854259L656.356700625,245.85596554283075L658.8389643125,250.07727910057233L659.0121455,242.20316086780707L660.1666867499999,249.7688200981941L660.5130491250001,242.45965048577992L660.5707761875001,248.1742434022018L662.0716798125001,248.95255433309137L662.47576925,252.0875813180885L666.1125741875,256.8360577925678L666.63211775,256.596848386896L667.0362071874999,251.90704846325602L667.6134778125,256.37738667039343L667.786659,251.50375804935544L669.056654375,255.50744286054436L669.6916520625,254.98924925902082L670.32664975,260.3633229286883L671.0193745,267.25671797920813L671.0771015625,275.5126985907791L671.25028275,276.49474579158857L672.63573225,274.9468907154861L672.982094625,273.52378472396094L674.3098170625,285.85564546260565L674.8870876875,282.7435586743465L675.3489041875,272.6281866523164L678.8702549999999,271.33245459401087L679.3897985625,277.608821079962L679.909342125,281.04429903608275L681.9297893125,279.8961310592439L683.5461470624999,279.8998444119629L683.71932825,286.13393242751016L686.0284107499999,287.0111878572226L687.4138602500001,289.88494171572194L691.1661193125,285.12748020506007L693.5906559375,282.339829803124L695.6688301875,286.3817896680596L695.9574655,282.2077631080129L696.0151925625,284.3231061435667L696.1306466875,284.01080108957103L696.9388255625,275.9955928186514L697.6315503124999,279.1813558199686L698.9592727500001,287.508162053663L699.305635125,284.96796846729853L700.1715410625001,289.3186129316724L700.5179034375,293.2489604070802L701.0951740625,293.06721259596077L702.4806235625,294.237402273155L703.4619836249999,292.419838230552L704.731979,289.3512926967769L706.5215179375,275.2497536824171L706.9256073749999,261.0004171649024L707.5606050625,245.57902897135835L708.7151463125,243.2673743984821L709.1192357499999,240.13241822614208L709.4078710625,229.40626648687348L711.8324076875,223.42705384236555L713.9105819375,228.86394976825156L715.5269396875,225.4610866982326L715.6423938125,228.32796313000455L715.700120875,230.66652496927847L715.815575,237.52533555770538L716.6814809375,236.70864101287637L717.0278433125,242.43203303710808L717.316478625,242.65025650926754L718.9905634375,238.3403372276169L719.7987423124999,242.08814644385538L720.43374,246.05639877514346L721.011010625,248.18732567378615L721.241918875,249.39704547591774L721.2996459375,249.26823359305158L722.9160036874999,247.22879205137198L723.43554725,245.61363215566035L724.7632696875,234.46025906021563L724.8209967500001,240.71662919755198L725.5137215,235.18434017321852L727.3032604375001,239.21698743814468L727.8228039999999,238.03753294800168L728.8041640624999,242.8291241414349L729.0927993749999,239.6681227368911L729.6123429375,233.2891254735374L730.0741594374999,239.87900874451628L730.5359759375,243.03184831111204L731.517336,244.30961105429478L733.249147875,233.03725807328564L733.8264185,237.43629157333558L735.9623198124999,243.93460938970128L736.481863375,240.60518670383857L736.5395904375,241.1788546756886L736.8859528125,228.18858082678665L737.8095858125,215.10166955461494L738.2136752499999,211.79870162967802L739.8300330000001,216.97981319423545L739.8877600625,217.90087395607114L740.4073036249999,225.1309032844271L740.6959389374999,232.28395140962792L741.330936625,232.0563104471245L741.8504801874999,227.56109571671442L742.6586590625,240.21468044968395L744.8522874375,239.04925178038945L745.025468625,246.14527246196423L745.5450121875,240.0381713165291L746.9881887500001,247.7658187588096L747.219097,250.8184493410823L747.7386405624999,254.26977137497846L748.5468194375,234.58198549591464L748.8931818125,226.81556895436498L749.0086359375,228.69296628483104L750.9713560624999,233.19397754452976L751.3177184375,222.48451151282845L751.6640808125001,220.83356566314595L751.7795349375,227.04421458914237L751.837262,222.87192997906877L752.4145326249999,231.73655269698992L752.7031679375,229.40366042586194L753.5113468124999,238.21941039192387L754.030890375,232.4668343267834L754.954523375,231.41430798431932L756.3976999375,233.778283464814L757.494514125,242.2130613845534L758.0140576875,240.30612012171196L759.0531448125,234.435262523786L760.6117755,231.77208312307795L761.9394979375,237.03040429019367L762.0549520625,229.4210073620104L762.112679125,237.83343399395264L765.0567593124999,240.82115456712086L765.5185758125,242.99749081132578L765.691757,240.60603020773237L766.2113005624999,250.85861082004902L768.4049289375,246.09786659812096L770.194467875,249.82460472691903L771.3490091250001,250.54662973479017L772.4458233125,246.57369348323613L774.23536225,241.74799910540725L774.69717875,243.1211198280569L774.8126328750001,242.83640963411395L776.775353,235.05616123922832L777.7567130625,236.12122897829738L778.5648919375,225.39366356842706L778.9112543125,229.00476958582078L780.5276120625,217.17707826710566L780.7007932500001,210.35914438484673L780.7585203125,214.13462794073925L781.1048826875,217.3021268749719L781.2203368124999,220.89746025245407L782.201696875,227.9752843291583L782.663513375,234.5206604574827L783.1830569375,231.46673684777622L784.048962875,240.16535262824002L784.9725958749999,237.70742451368943L787.2239513124999,220.26652666411763L787.9166760625,228.68191999660732L788.0321301875,230.69827362765665L788.6094008125001,236.89926078934468L789.2443985,239.2037940505187L789.6484879374999,238.85808381256746L790.052577375,242.3336206450084L790.1680315,248.06925148083525L791.1493915625,239.58307494659417L792.2462057500001,238.84619011068565L794.3243799999999,239.49239866207859L795.8830106875,239.05274038854597L796.2293730625,234.67201846084916L796.748916625,230.54260044568863L798.4807284999999,236.04260223543858L799.8084509375,234.2538553891036L799.866178,231.30431692502043L800.905265125,234.09221317392357L802.521622875,226.95936433699922L802.8102581875,217.2784989824621L804.3688888749999,216.13858089947234L804.8307053750001,215.37029220534774L805.1193406875,212.03028548487217L805.2347948125,215.70240837701076L805.292521875,221.72221598477688L806.447063125,215.75187046213233L806.7356984375,216.01596101191876L807.5438773125001,219.73769971445992L808.1211479374999,214.4464017415951L808.40978325,208.56526060083524L808.8138726875,209.9552286042167L809.910686875,206.22726242465484L810.6034116249999,203.51459813172403L812.6238588125,193.08890850771402L813.143402375,193.92165651298478L815.914301375,184.64478180186728L816.2029366874999,184.84812332834838L817.068842625,185.45213353520975L817.7038403125,188.00348333307807L817.9347485625,191.8328915476602L818.8583815625001,192.01445124394243L819.608833375,190.16461636183863L820.763374625,193.21266049228544L821.2829181875001,193.9733780248566L821.7447346875,202.85876048177442L823.8229089375,204.8788544080621L824.9774501875,204.07414692505017L825.150631375,207.93196041780305L826.074264375,205.00827081818926L826.9978973750001,210.9607395927639L831.0965188125,207.55881257498834L831.6160623750001,210.96614733866622L831.6737894375001,219.45846563315047L833.4056013125,212.42616166990507L834.5024155,218.8759540389384L834.6755966874999,227.13398932480519L835.9455920624999,228.10068196073655L838.4855828125,220.81005738786564L839.6978511249999,218.64022406845058L840.0442135000001,227.8612115562947L840.159667625,228.48916858350321L841.3719359375,225.5508143973434L842.6419313125,221.0063246942384L844.3160161249999,224.76126849790833L846.971461,225.392345453878L848.58781875,229.0384963233632L851.9937154375,232.89588679233424L852.9173484375,229.41915298771065L854.706887375,240.37569343372107L855.168703875,242.56095562641732L856.3809721875,235.57094627789473L857.82414875,241.29238856157255L858.1127840624999,251.1650107881109L858.863235875,233.48461467015113L859.6136876875,221.59730809945023L859.9600500625,219.10173383313634L862.3845866875,221.27179827451562L862.44231375,216.3635248119412L862.7309490624999,222.22497718223L863.596855,226.52485221937417L866.945024625,226.85885775605504L867.9263846875,215.6099305382701L869.485015375,215.82327722957515L869.5427424375,219.75242567862455L870.0045589375001,223.15784643531882L870.6972836875,227.20867522772207L870.8704648749999,232.2095349038525L871.3900084375,237.41586670918218L872.255914375,237.98926570841718L872.4868226250001,235.29471562448762L873.4681826875,239.58224419005478L874.5072698125,243.93568192782357L875.5463569374999,252.43133716575733L876.412262875,247.90062273800478L876.9895335000001,253.4776347733251L877.1627146875,260.4878079858679L877.8554394375,254.6153105519813L877.9131665,250.76244133480168L878.1440747500001,254.8975495280465L879.7604325,237.35357523155582L881.261336125,228.46880210073246L883.1663291875,240.0690335262187L884.032235125,242.8767745038649L886.1104093749999,253.27107553379847L886.3990446875,257.92007211675246L889.1699436875,263.78863807762366L889.4008519375,258.64107255663566L890.5553931874999,245.6580643987908L893.38401925,242.21930454532608L894.884922875,239.62382517194348L895.0581040625,233.24888598992882L897.4826406875,233.1603649700181L898.4062736875,226.48456116094326L900.426720875,236.82354677453208L901.2926268125,237.84098650164097L901.7544433125,236.2004348493978L902.1008056874999,229.20773487392972L904.00579875,226.22415595242146L904.9871588125001,223.6017808711934L905.16034,233.96588377812247L905.3335211875,242.82640592896584L906.083973,241.13417406282318L907.6426036875,240.91387230154675L908.6816908125,242.79660144713523L909.08578025,232.78676539727437L909.4898696874999,231.36788978889456L910.7598650625,226.8843846617444L911.972133375,229.00139505921905L912.7225851874999,224.0531936019915L914.743032375,224.26297196935133L916.0707548125,219.28741985521629L916.243936,216.0033428395182L916.9943878125,215.43557086329395L917.2252960625,216.56811384208268L917.5716584375,211.4494003872403L920.0539221250001,214.11299930710072L920.1116491875,218.26598447634848L921.2084633750001,202.90573928981823L921.3816445625,205.76689152834146L921.8434610625,210.71815171718137L921.901188125,216.72757249310538L921.9589151875,220.70685585603232L922.3052775624999,225.12479132887944L923.4598188125,212.90365131163153L923.5752729375,213.63376360230197L924.6143600624999,217.89595130248586L927.5007131875,215.49410176303786L928.3088920625,218.53565080386318L928.6552544375,219.53091649908163L930.6179745625001,225.36177644186762L932.984784125,220.00910920788414L934.6011418749999,217.2208345465375L936.1597725624999,216.85245980389172L936.448407875,220.11789341237267L936.79477025,221.27064341277836L938.1224926875,229.1769811574974L939.5656692499999,232.4750058635417L940.258394,238.52710170538123L940.3161210625,233.4846135751334L940.6624834375,234.2973180113001L941.1820270000001,235.75261144253062L942.1633870625001,229.76097453586323L942.8561118125,228.7993943518805L943.2024741874999,221.89599974594748L944.3570154375,226.34739649805203L944.5879236875,231.75148319914803L945.9733731875,233.5927587967558L946.0888273125,229.65005464404948L946.608370875,228.1359790632603L949.494724,229.62796267829532L950.8801735,232.4706567613361L952.2078959375,237.06153346955466L954.228343125,229.5895552607072L954.2860701875,227.49752606881808L955.6715196875,230.8594265405114L955.7869738124999,233.55099253803473L955.844700875,236.00796706639656L957.57651275,237.13888322364153L959.0196893125,235.20555190521338L959.308324625,232.5258961579358L960.1742305625,232.3865521275065L960.5205929374999,224.35388497579777L962.2524048125,222.12422277160837L962.310131875,228.83388950871793L962.771948375,223.2195560516236L963.0028566249999,223.57790587385645L963.3492190000001,229.59952981311898L964.2728520000001,230.72284200401475L966.7551156875,216.57737690833858L967.4478404375,215.19397598704217L968.082838125,213.1552284551809L968.66010875,206.20851575561971L968.7178358125,213.4221241295776L968.9487440625,216.99111273605763L969.1796523125,219.163745650425L969.4105605625,219.0962707961218L970.391920625,227.14659356841705L970.738283,228.77378021759782L970.96919125,223.64056044790706L971.0846453749999,221.7631259183449L972.5278219375,225.28879610730007L973.624636125,221.736836581599L974.0287255625,226.8835539012884L974.086452625,234.2398234230182L975.010085625,243.71224267866228L975.1832668125,245.15080846113463L977.0305328124999,251.53593283402188L977.0882598750001,258.4962465187104L977.1459869375001,262.630136625727L978.5314364375,269.3716308594545L979.3396153125,272.07071403835124L982.2836955,271.4437251874342L982.97642025,266.5318702656406L986.6132251875,264.6914205455184L987.1904958125,267.2518408557619L989.0377618125,252.59678602534257L989.2686700625,254.82630106620894L990.4232113125,261.4558575315405L991.8086608125,258.9053523086281L991.9241149375,254.58958007328283L992.905475,255.1076481814217L995.0413763125,246.2426552684927L995.7341010625,241.59580170850157L996.7731881875,249.00480668415005L997.0618235000001,253.43399594202043L997.177277625,244.15445387571268L997.75454825,245.7297520825071L998.793635375,245.2308765210418L999.717268375,247.63569826665457L1000.1213578124999,250.9062433760445L1001.1027178749999,248.8559069380375L1001.44908025,247.9829893190685L1001.8531696875,256.7972185523157L1004.566341625,255.67327675471122L1004.8549769374999,258.45789805682L1005.7786099374999,252.30530652400967L1006.1249723125,256.9322260105282L1006.7022429375,260.75230946605586L1007.1640594375,261.8895264178144L1007.7413300625,259.9655144559305L1008.1454195,261.1054081076763L1008.722690125,264.50967400795383L1008.7804171875,265.494151402867L1008.83814425,267.712236290382L1009.5885960625,267.71734801803296L1010.6854102499999,261.4137745207686L1011.8399515,250.46797625949895L1012.4749491875,260.80461593933177L1015.188121125,264.4461481328193L1015.880845875,259.668126475882L1016.5158435625,255.49024713645676L1018.3631095625,250.2886766532247L1020.2103755625001,248.33727454364856L1021.9999144999999,243.02057523917418L1024.1358158125,249.67673601090124L1025.5212653125,250.77197484301246L1026.040808875,239.6630632252965L1026.38717125,250.7853562821419L1027.2530771875001,247.87784604751806L1028.23443725,255.82036217441902L1029.042616125,261.43704339875904L1029.2157973125,262.34277684469856L1030.3126115,267.9999710312138L1031.4094256875,262.71327672930954L1031.8712421875,268.35847476553977L1036.0275906875,256.3791040949805L1037.93258375,250.34841648655117L1038.39440025,246.32099666820176L1038.7407626250001,246.91906539116658L1040.126212125,242.221104154183L1040.1839391875,249.0689484167797L1040.5880286249999,253.4717049179111L1042.3775675625,255.9066609467272L1042.7239299375,259.3758602031863L1043.93619825,259.4986233741246L1044.628923,261.7610770420531L1045.6102830625,259.97722535615884L1045.668010125,257.9927291379841" style="fill: none;" fill="none"></path></g></g></g></g><g opacity="0.2"><g><g><g><path stroke="rgb(255, 112, 67)" stroke-width="2px" d="M116.55093918749999,-513.9840637207031L117.9363886875,67.73685226440432L118.109569875,-25.863444519042957L125.1522715,-84.21384468078617L128.731349375,193.36998710632324L129.0199846875,-91.05121765136715L130.232253,-35.942771911621094L130.5208883125,63.84995956420897L130.92497775,104.19851379394532L131.271340125,-123.35976486206056L133.2917873125,-12.494582366943348L133.4072414375,61.853083419799816L133.8690579375,51.840882110595714L135.54314275000002,-67.61379966735836L136.697684,-29.18272590637207L139.814945375,156.72692108154297L139.8726724375,50.93863906860349L141.0272136875,196.04861030578613L142.0663008125,96.86671905517579L142.87447968749998,14.82523422241212L146.45355756249998,-15.739532852172886L149.33991068749998,-105.95613288879395L149.39763774999997,210.55105438232422L151.3026308125,-83.39599075317386L152.1108096875,103.47396583557128L152.5726261875,199.39114685058593L152.86126149999998,138.992081451416L152.976715625,-71.2685688018799L153.669440375,76.66868743896487L154.246711,1.34230766296389L156.7289746875,-140.02308387756352L157.1907911875,107.20434989929197L157.6526076875,-83.50434837341305L159.1535113125,155.19507675170897L159.67305487500002,169.72534141540527L159.90396312500002,170.71197357177735L160.01941725,169.06977424621581L160.827596125,78.27557601928709L160.94305025,190.57487411499022L161.3471396875,-88.26052742004396L161.8089561875,199.7216411590576L162.15531856249999,-59.814761734008755L163.7716763125,128.60886764526367L167.98575187499998,113.76851043701174L169.8907449375,59.87824974060061L170.063926125,218.0232360839844L171.0452861875,349.18885135650635L171.56482975,136.65443878173826L171.6225568125,112.60625190734862L171.9689191875,-43.96344718933102L172.3152815625,177.21949424743653L173.3543686875,274.84803371429444L173.52754987499998,-107.76261634826659L174.0470934375,154.84061393737792L176.8757195,109.08388023376466L177.04890068749998,-1.6369918823242529L177.39526306250002,123.59745254516602L177.7416254375,-71.33740692138673L178.607531375,82.78572120666502L178.95389375,-0.10414886474609375L179.2425290625,280.8789306640625L182.2443363125,185.94930915832518L182.532971625,117.1890872955322L182.5906986875,106.66363182067869L183.6297858125,-86.99083862304684L184.380237625,50.83249282836914L187.3243178125,89.84052276611328L188.305677875,165.90001068115234L189.46021912499998,130.40072746276857L191.4806663125,55.27144584655764L191.6538475,214.66507720947266L192.462026375,100.10674743652345L192.692934625,133.8553310394287L195.463833625,-20.7816219329834L195.86792306249998,238.02666625976562L197.13791843750002,144.8749942779541L197.8306431875,76.10079078674318L198.4079138125,145.97512016296386L200.1397256875,182.14316749572754L200.774723375,145.8385139465332L201.236539875,255.14210548400877L201.58290225000002,299.65557994842527L203.43016824999998,305.93479347229004L205.1042530625,336.7115320205688L206.0278860625,197.45062522888185L206.95151906249998,154.48286972045898L207.1824273125,-44.340166473388706L208.163787375,127.13380584716796L210.1842345625,35.811658477783226L212.6087711875,126.2366989135742L213.12831475,69.44774703979493L213.474677125,233.38612098693847L213.76331243750002,125.51279296875L214.167401875,201.4404541015625L214.68694543750001,-125.59097595214843L215.4951243125,213.13045082092285L215.6105784375,-42.96732749938968L215.78375962500002,219.12707138061523L216.30330318749998,69.1990737915039L218.32375037499997,115.89521598815918L219.709199875,134.40496597290038L220.92146818749998,160.38454360961916L221.9605553125,53.06926803588868L222.480098875,152.6654006958008L223.2305506875,88.56876525878909L223.403731875,194.8508270263672L223.86554837499997,189.0209873199463L226.174630875,266.592631149292L227.1559909375,-35.61969642639161L227.73326156250002,175.59655532836913L227.90644275,-68.61141738891598L229.060984,-26.784305953979526L229.984617,214.2032554626465L231.023704125,73.91416397094724L231.716428875,-344.7072044372559L232.6977889375,50.72028312683108L233.0441513125,79.98825416564944L235.180052625,205.49897842407228L235.3532338125,230.69957962036133L235.410960875,115.55473480224612L235.872777375,14.033132171630882L236.103685625,272.46020698547363L236.5077750625,153.0155834197998L239.56730937499998,131.77435111999512L239.9713988125,98.14461135864258L240.490942375,131.58367309570312L241.76093775,190.99874572753907L241.991846,139.98092498779297L242.45366249999998,241.45594596862793L242.915479,219.0980381011963L243.14638725,137.33297576904297L244.3009285,34.49945411682131L244.58956381250002,74.54048385620115L244.647290875,192.278706741333L244.9359261875,250.08710479736328L245.6286509375,110.17437591552732L245.801832125,32.5759101867676L246.0904674375,27.027486419677757L247.18728162500003,130.04547996520998L248.11091462500002,278.6521066665649L248.68818525,268.8605796813965L249.38091,121.52225074768066L250.88181362499998,218.05804748535155L251.4013571875,188.86925811767577L253.421804375,261.7941505432129L253.4795314375,166.0449630737305L253.5949855625,193.2126937866211L256.1349763125,272.96058521270754L256.5967928125,239.32902641296386L257.116336375,249.3776798248291L257.2317905,342.6717004776001L257.5204258125,344.24195861816406L258.963602375,157.7201873779297L259.0213294375,195.37849082946778L259.5986000625,-116.12776756286621L259.7140541875,74.21676635742188L260.00268950000003,259.38674240112306L260.810868375,190.56831130981445L261.15723075,279.0066764831543L261.6767743125,151.3935718536377L262.54268025,83.4494918823242L262.889042625,140.70711364746094L265.9485769375,275.67045307159424L266.929937,199.16066398620606L270.509014875,268.68313426971434L270.7976501875,229.29827804565429L271.548102,97.81946716308596L273.6840033125,210.33334045410157L274.49218218749996,199.341711807251L276.51262937499996,142.62345275878906L281.3039755625,218.74571533203124L282.3430626875,236.31798286437987L282.6894250625,253.5015468597412L284.0748745625,368.82287406921387L286.7880465,-9.898065567016602L287.249863,39.27582092285155L289.32803724999997,148.61351051330567L290.25167025,-30.357182693481434L290.42485143749997,123.1309940338135L290.8866679375,218.18509483337402L291.05984912499997,119.39811325073242L292.676206875,59.12752189636228L294.40801875,113.1441879272461L297.64073425,149.2107971191406L297.987096625,176.57241592407226L298.91072962500004,155.31384925842283L299.94981674999997,301.5747724533081L300.00754381250005,204.9382152557373L301.9702639375,203.12231559753417L302.5475345625,264.0422323226929L302.72071575,210.87762527465821L302.7784428125,198.1011989593506L302.8938969375,119.1448745727539L302.95162400000004,184.0978847503662L304.3948005625,159.47309837341308L306.29979362499995,123.01992568969726L308.608876125,103.53481445312502L310.39841506249996,191.6523868560791L311.95704575,66.91949768066405L312.2456810625,212.99462928771973L313.5156764375,173.2430763244629L314.612490625,200.7686939239502L315.4783965625,183.0529006958008L316.4020295625,98.69331893920901L318.07611437500003,66.10770721435546L318.2492955625,-28.165847778320312L319.692472125,179.0981685638428L322.17473581250005,90.01736183166503L323.3292770625,160.12795219421386L324.3683641875,228.23510360717773L324.48381831250003,127.9876838684082L324.5992724375,83.87172279357912L324.9456348125,5.8642230987549055L326.5619925625,262.7009590148926L327.3701714375,65.68611831665038L330.6028869375,56.56360511779786L330.8337951875,145.04819526672364L331.468792875,243.5397792816162L333.25833181250005,294.1256319046021L333.7201483125,245.07276496887206L334.47060012500003,96.52103042602539L334.75923543749997,241.83630332946777L335.6828684375,128.2113899230957L335.97150374999995,175.95793762207032L336.08695787500005,-48.864863967895474L336.66422850000004,-19.417699813842773L338.5692215625,108.71807518005369L339.2619463125,143.0329147338867L342.26375356249997,64.4801315307617L342.89875125,159.39356002807617L343.8801113125,37.67463912963865L345.4964690625,221.6507553100586L346.9973726875,147.67267532348635L347.69009743749996,30.7025146484375L348.325095125,170.7079074859619L348.4982763125,186.4825370788574L351.78871887500003,203.22004432678222L352.0773541875,78.05408134460447L352.71235187499997,156.05066680908203L356.92642743749997,-47.47340660095216L357.56142512499997,164.69323921203613L357.61915218750005,57.76038970947263L357.73460631250003,117.30193901062012L358.02324162499997,104.99568061828614L358.0809686875,120.6454029083252L359.52414525,58.42180633544922L359.8127805625,183.5224266052246L359.98596175,183.86497650146484L360.44777825,152.44568939208986L361.60231949999996,108.43016777038576L361.7755006875,-7.205104064941395L361.83322775,116.30011253356935L362.69913368749997,186.0199306488037L363.9691290625,121.6358871459961L364.719580875,-139.09195022583003L364.835035,381.7946151733398L367.721388125,245.25566749572755L369.10683762499997,70.77222099304197L369.5109270625,159.08817558288573L369.8572894375,94.08166427612304L371.2427389375,208.71853370666503L371.41592012499996,169.650297164917L374.8218168125,143.87231178283693L375.803176875,258.9734283447266L377.0154451875,173.47441520690919L377.188626375,201.49923400878907L379.7863441875,130.71510009765623L379.959525375,295.11864852905273L380.88315837500005,191.1556823730469L382.6726973125,153.92488861083984L384.2890550625,128.4463668823242L384.7508715625,19.583410644531227L384.9817798125,132.50111045837403L385.44359631249995,75.11315994262696L386.07859399999995,241.06560173034669L387.579497625,176.20204544067383L387.86813293750004,168.14120864868164L388.7917659375,323.45434455871583L389.7153989375,-64.99645309448243L390.17721543749997,164.48472747802734L390.696759,189.2578903198242L391.2163025625,107.82596168518069L391.85130024999995,92.8920845031738L391.9090273125,205.65684242248534L392.6017520625,103.47731857299806L392.7172061875,97.84500503540039L394.91083456250004,305.32145652771L395.6035593125,153.63676719665526L396.7003735,94.11989974975586L398.0280959375,190.3016616821289L399.1826371875,246.2797504425049L401.9535361875,157.8697052001953L402.47307975,190.7766803741455L402.6462609375,268.8528398513794L405.70579525,131.2841381072998L405.87897643749994,319.2104923248291L407.03351768749997,338.9352172851562L407.1489718125,180.82618370056153L407.20669887500003,130.37012481689453L410.2662331875,244.53818168640137L411.4207744375,76.86821098327636L411.8825909375,280.3229469299316L413.672129875,144.6445827484131L414.6534899375,214.5565055847168L415.6925770625,153.99986152648924L416.1543935625,202.8526699066162L417.94393249999996,177.57773780822754L420.830285625,290.85161247253416L422.5043704375,88.52988777160647L423.139368125,183.87910079956055L424.063001125,251.51287422180178L424.87118,228.91421127319336L426.08344831249997,179.4340129852295L428.3925308125,358.4722246170044L429.66252618749996,307.74263229370115L429.9511615,274.11717262268064L432.08706281250005,138.33465957641602L432.7220605,174.07912063598633L433.87660175,222.4110420227051L433.992055875,15.25367126464846L435.839321875,293.2170400619507L437.224771375,228.35309143066405L437.917496125,161.8797218322754L438.03295025,271.2780460357666L438.37931262499995,22.998780059814464L440.5152139375,303.80345115661623L442.1315716875,207.38236083984376L442.2470258125,109.84809036254882L442.47793406249997,284.91651821136475L443.34384,219.9869415283203L445.7106495625,139.72882766723635L445.88383074999996,401.56217670440674L448.9433650625,211.77986831665038L449.11654625,143.77707977294924L449.69381687500004,211.29300804138182L450.732904,145.89172973632813L450.79063106250004,269.6566051483154L451.771991125,-32.92694892883304L451.9451723125,221.56408348083497L453.9078924375,253.89888191223145L454.02334656249997,218.7993591308594L454.427436,323.715537071228L456.50561024999996,131.77185440063477L457.7178785625,139.64793395996094L459.1033280625,281.9320468902588L459.391963375,239.79020614624022L459.73832575,252.98558197021487L461.2969564375,270.4321931838989L462.4514976875,183.27839012145998L462.74013299999996,99.24730529785154L463.60603893750005,254.889009475708L463.89467425,277.48271465301514L466.3769379375,331.1494832992554L467.8201145,21.834809494018543L467.935568625,263.33872814178466L468.859201625,249.60074386596682L468.97465575,132.6142475128174L469.32101812499997,14.624783325195324L469.43647225,139.6906635284424L470.475559375,196.71009826660156L471.8032818125,174.20317192077638L472.32282537500004,188.79350051879882L473.41963956250004,299.0952091217041L474.05463725000004,145.67986526489258L474.170091375,73.98820953369142L474.51645375,389.09791164398194L475.2669055625,362.56449031829834L476.30599268749995,193.20991172790528L478.557348125,236.77559585571288L479.8850705625,183.74042587280272L480.173705875,167.15771522521973L481.55915537500005,240.4472713470459L482.1941530625,193.33403434753419L482.82915075,32.99999580383303L483.2332401875,286.5154172897339L483.5796025625,254.47997550964357L484.9650520625,185.26263999938965L488.37094874999997,95.39115791320802L490.449123,170.23567085266112L490.5068500625,297.1019710540771L490.7377583125,267.1572463989258L491.8922995625,103.4085517883301L491.95002662499996,293.18262100219727L492.0077536875,290.90664730072024L492.4695701875,313.9515453338623L495.0095609375,186.7408405303955L495.413650375,112.22675056457518L495.58683156250004,315.2032934188843L496.68364575000004,145.89907722473143L499.800907125,193.44346199035644L500.3204506875,282.48835163116456L500.4359048125,229.27908897399902L500.66681306249995,-7.356405258178711L501.0131754375,29.244002532958973L501.186356625,130.14506340026855L501.5904460625,402.8924644470215L502.0522625625,39.559876251220714L502.22544375,285.2098114013672L502.9181685,378.38416786193847L504.4767991875,188.55538482666014L504.70770743749995,261.60218849182127L505.34270512499995,278.4790126800537L505.97770281249996,172.25401878356934L509.90314306249996,168.87795486450196L510.71132193750003,176.6490295410156L511.1731384375,233.29402770996094L511.9813173125,115.89478797912597L512.039044375,42.885506439208996L513.539948,135.5946170806885L514.348126875,212.65586013793944L515.7913034375,180.96849670410157L517.4653882499999,247.31724433898927L517.6385694375,313.8349128723145L519.1394730625,331.48368701934817L520.1785601875,284.38150691986084L520.4094684375,132.50710258483886L521.852645,29.787217330932606L524.85445225,43.29161567687987L525.7203581875,150.1633312225342L526.1821746875,70.88371734619142L526.23990175,285.82525272369384L527.509897125,187.35474815368653L528.54898425,275.35929050445554L530.85806675,118.92373657226562L532.0703350625,252.09261245727538L533.859874,110.58719062805176L536.9194083125,373.2522682189941L537.554406,144.7249771118164L538.593493125,51.95038108825685L539.17076375,199.45178146362304L539.2284908125,360.623291015625L540.3253050000001,192.73589172363282L541.6530274375,141.21280632019042L542.749841625,118.89620132446291L544.4816535,174.16236839294433L545.0011970625001,217.6234043121338L545.17437825,248.1376663208008L545.5784676875,308.0793327331543L546.1557383125,296.31111736297606L546.3289195,387.9030174255371L546.6175548125,262.8154514312744L547.1948254375,263.3272789001465L548.5802749375,201.76381492614746L549.0998185,115.11659622192383L550.1966326874999,142.2574337005615L551.1779927499999,206.934806060791L554.757070625,207.42851448059082L556.7775178125,159.48379859924316L557.7588778749999,183.38082695007324L558.3361484999999,150.3254039764404L558.6247838125,348.0739234924316L559.2597815,272.2031518936157L559.606143875,226.04669342041015L560.0102333125,165.73743858337403L561.0493204375,222.17841911315918L561.33795575,111.26651229858396L561.6265910625,313.21483478546145L562.6656781875,310.7530694961548L563.300675875,214.3992835998535L563.4738570625,198.58484916687013L564.6283983124999,185.9501651763916L565.0902148125,155.61752166748047L565.6674854375,267.73990936279296L567.687932625,105.06216468811033L567.9765679375,145.02993354797363L571.4979187499999,283.6746500015259L571.5556458125,148.7859981536865L573.4029118125,250.75116081237792L575.8851755000001,205.81335105895997L576.346992,256.4006660461426L576.8088084999999,317.8034126281738L576.8665355625,335.68409633636475L578.8292556875,358.55404567718506L579.464253375,184.21993865966797L580.1569781249999,196.0984733581543L581.1383381874999,241.11781883239746L584.6019619374999,134.0395175933838L585.9874114375,297.2377925872803L587.7192233125,267.2547611236572L587.9501315625,357.4447532653809L588.7583104375,302.422373008728L589.7396705,304.16194438934326L590.086032875,122.83652381896971L592.5105695,228.03986015319825L593.4342025,249.3624855041504L594.0692001875,224.03226890563965L594.58874375,233.8761199951172L595.05056025,170.6290111541748L596.2051015,352.23327960968015L596.320555625,359.98769760131836L596.4937368125001,171.93529472351074L596.6091909375,236.81033592224122L596.9555533125,248.2754138946533L598.1100945625,365.8978603363037L598.28327575,149.69887008666993L598.5719110624999,272.10485248565675L599.091454625,163.58212776184084L603.132349,242.5223304748535L604.2868902499999,263.5761661529541L604.3446173125,290.29537906646726L604.4600714375,79.76091003417969L605.2682503125,148.89093170166015L605.4991585624999,217.8722915649414L606.018702125,270.0469850540161L606.0764291875,251.8019229888916L606.3650645,173.2158977508545L606.6536998125,310.5115653991699L607.51960575,258.5791606903076L609.3091446875001,243.36550827026366L610.0018694375,157.71633529663086L610.4059588749999,241.61680603027344L610.6945941875,130.78115615844726L611.5027730625,-29.786432647705112L612.022316625,174.32001838684081L613.52322025,177.25937042236328L613.9273096874999,360.9394470214844L613.9850367500001,291.3869091033936L614.5045803125,272.78189144134524L616.6982086875,252.94206771850588L617.1600251875,135.52249755859376L617.21775225,205.1821090698242L617.4486605000001,252.8964847564697L619.2959265,170.64242210388184L622.0090984374999,266.3296552658081L622.2400066875,204.13198890686036L623.567729125,20.93513450622561L624.6068162500001,393.16724319458007L624.7799974375,368.1891353607178L625.99226575,308.1174612045288L626.6272634374999,242.49286918640138L628.0127129375,254.4854682922363L628.416802375,17.237635803222645L629.3981624375,362.40280990600587L629.5136165625,187.62039909362792L629.68679775,211.3773971557617L630.8990660625,323.6807613372803L631.0145201875,209.67442054748534L631.3031554999999,247.24562416076662L631.9381531875,261.37598571777346L632.6308779375,192.18968086242677L633.6122379999999,216.99244766235353L634.651325125,216.8242401123047L634.9976875000001,513.0869567871093L635.574958125,215.3624465942383L636.61404525,364.09508628845214L636.6717723125,15.288268661499046L638.2304029999999,283.8783466339111L638.6922195000001,125.07779312133789L639.269490125,272.910365486145L639.9044878125001,173.94729385375976L641.116756125,342.2558540344238L642.15584325,276.59841232299806L644.00310925,338.30572299957277L644.4071986875,428.6008270263672L647.4090059375,-34.06630897521973L647.5244600625,227.33214721679687L648.1017306875,372.78926944732666L648.505820125,201.73092956542968L650.0644508125,266.85706939697263L651.276719125,230.16956176757813L651.85398975,441.132218170166L652.77762275,57.67649993896487L652.893076875,362.3431383132935L653.2971663124999,297.21407375335696L655.1444323125,134.19110412597658L656.0680653125,246.25406990051272L656.356700625,218.9607898712158L658.8389643125,312.8609426498413L659.0121455,125.0912754058838L660.1666867499999,362.2929899215698L660.5130491250001,133.75025482177736L660.5707761875001,333.16747455596925L662.0716798125001,260.5283851623535L662.47576925,298.7148874282837L666.1125741875,327.4602237701416L666.63211775,253.03908309936526L667.0362071874999,182.15557975769045L667.6134778125,322.86479778289794L667.786659,179.01820220947266L669.056654375,315.05431060791017L669.6916520625,247.2821475982666L670.32664975,340.29200592041013L671.0193745,369.7822919845581L671.0771015625,398.3040292739868L671.25028275,291.1007493972778L672.63573225,251.92561759948728L672.982094625,252.35790672302244L674.3098170625,469.26760597229L674.8870876875,236.45744247436522L675.3489041875,122.18209800720214L678.8702549999999,252.06101112365724L679.3897985625,370.9573194503784L679.909342125,332.1402172088623L681.9297893125,262.81941051483153L683.5461470624999,279.95507316589357L683.71932825,378.85362243652344L686.0284107499999,300.0586217880249L687.4138602500001,332.62632846832275L691.1661193125,214.36967964172362L693.5906559375,240.879061126709L695.6688301875,346.49792289733887L695.9574655,220.1273998260498L696.0151925625,315.7846366882324L696.1306466875,279.36588306427L696.9388255625,156.78527297973633L697.6315503124999,326.56325950622556L698.9592727500001,411.3528833389282L699.305635125,247.18762893676757L700.1715410625001,354.0258171081543L700.5179034375,351.7050807952881L701.0951740625,290.3640745162964L702.4806235625,311.6416519165039L703.4619836249999,265.3871793746948L704.731979,243.71276626586913L706.5215179375,65.5173400878906L706.9256073749999,49.06980895996094L707.5606050625,16.216477584838856L708.7151463125,208.88609924316407L709.1192357499999,193.50616531372071L709.4078710625,69.87604141235352L711.8324076875,134.49812927246094L713.9105819375,309.72698917388914L715.5269396875,174.85025024414062L715.6423938125,270.9670618057251L715.700120875,265.4479923248291L715.815575,339.5365343093872L716.6814809375,224.56193008422852L717.0278433125,327.5561334609985L717.316478625,245.89589767456056L718.9905634375,174.23883934020998L719.7987423124999,297.82937240600586L720.43374,305.07627868652344L721.011010625,279.88063526153564L721.241918875,267.38922729492185L721.2996459375,247.35241241455077L722.9160036874999,216.89614562988282L723.43554725,221.59133338928223L724.7632696875,68.57596397399902L724.8209967500001,333.76772155761716L725.5137215,152.90251770019532L727.3032604375001,299.19461421966554L727.8228039999999,220.4954875946045L728.8041640624999,314.09453601837157L729.0927993749999,192.65449867248535L729.6123429375,138.41419792175293L730.0741594374999,337.89044723510744L730.5359759375,289.92408123016355L731.517336,263.3137966156006L733.249147875,65.38337326049805L733.8264185,302.8631866455078L735.9623198124999,340.58419342041014L736.481863375,191.08663024902344L736.5395904375,249.71102752685545L736.8859528125,34.984031677246094L737.8095858125,20.459830474853504L738.2136752499999,162.67360725402833L739.8300330000001,294.03856773376464L739.8877600625,231.59982528686524L740.4073036249999,332.6632442474365L740.6959389374999,338.6713497161865L741.330936625,228.6706027984619L741.8504801874999,160.70369567871094L742.6586590625,428.4116470336914L744.8522874375,221.71581268310547L745.025468625,351.6845006942749L745.5450121875,149.2071590423584L746.9881887500001,362.69924182891845L747.219097,296.2202724456787L747.7386405624999,305.60133876800535L748.5468194375,-58.23476638793949L748.8931818125,111.30553245544434L749.0086359375,256.6155265808105L750.9713560624999,300.1375894546509L751.3177184375,63.202453231811546L751.6640808125001,196.27902183532714L751.7795349375,319.4152946472168L751.837262,160.8174747467041L752.4145326249999,363.5802270889282L752.7031679375,194.70651664733887L753.5113468124999,369.33619956970216L754.030890375,146.90867919921877L754.954523375,215.76006698608398L756.3976999375,268.9377283096313L757.494514125,367.66364727020266L758.0140576875,211.94415245056152L759.0531448125,147.1179042816162L760.6117755,192.16257362365724L761.9394979375,315.2374984741211L762.0549520625,116.2463260650635L762.112679125,362.9515888214111L765.0567593124999,285.2575700759888L765.5185758125,275.3661743164063L765.691757,205.0377986907959L766.2113005624999,403.34540500640867L768.4049289375,175.29124221801757L770.194467875,305.252440071106L771.3490091250001,261.28531913757325L772.4458233125,187.4841495513916L774.23536225,169.97537002563476L774.69717875,263.5435661315918L774.8126328750001,238.60191040039064L776.775353,119.34040336608885L777.7567130625,251.96199836730955L778.5648919375,65.8424129486084L778.9112543125,282.71280670166016L780.5276120625,41.26363754272461L780.7007932500001,108.95590553283694L780.7585203125,270.2874547958374L781.1048826875,264.4123888015747L781.2203368124999,274.37091064453125L782.201696875,333.243874168396L782.663513375,331.87014350891116L783.1830569375,186.04568252563476L784.048962875,369.5400032043457L784.9725958749999,201.1506206512451L787.2239513124999,-39.132223892211925L787.9166760625,353.8441986083984L788.0321301875,260.6875331878662L788.6094008125001,329.12664127349854L789.2443985,273.4791538238525L789.6484879374999,233.7163299560547L790.052577375,294.0253351211548L790.1680315,333.37537994384763L791.1493915625,113.3680366516113L792.2462057500001,227.8864902496338L794.3243799999999,249.10346870422364L795.8830106875,232.51369590759276L796.2293730625,169.5174716949463L796.748916625,169.12570075988768L798.4807284999999,317.84421615600587L799.8084509375,207.64979515075683L799.866178,187.43578453063964L800.905265125,275.55663833618166L802.521622875,120.87239036560058L802.8102581875,73.29483489990236L804.3688888749999,199.18456115722657L804.8307053750001,203.94352226257325L805.1193406875,162.35431251525878L805.2347948125,270.3179504394531L805.292521875,311.2549100875855L806.447063125,126.9548267364502L806.7356984375,219.94378395080565L807.5438773125001,275.09117851257326L808.1211479374999,135.74884300231932L808.40978325,121.0949550628662L808.8138726875,230.62824478149415L809.910686875,150.7811622619629L810.6034116249999,163.16909904479982L812.6238588125,38.02746124267577L813.143402375,206.30713081359863L815.914301375,46.669676971435536L816.2029366874999,187.8724250793457L817.068842625,194.4355869293213L817.7038403125,225.94974937438965L817.9347485625,248.78774070739746L818.8583815625001,194.71479148864745L819.608833375,162.65199279785156L820.763374625,238.54626922607423L821.2829181875001,205.28754196166992L821.7447346875,335.0111948013306L823.8229089375,234.9237434387207L824.9774501875,192.10571975708007L825.150631375,265.30928173065183L826.074264375,161.52418899536133L826.9978973750001,299.49190216064454L831.0965188125,156.9618980407715L831.6160623750001,261.6434913635254L831.6737894375001,345.7648504257202L833.4056013125,107.83459320068357L834.5024155,314.80381832122805L834.6755966874999,349.9558792114258L835.9455920624999,242.47831687927246L838.4855828125,112.3764823913574L839.6978511249999,186.3682586669922L840.0442135000001,365.00510482788087L840.159667625,237.82878341674805L841.3719359375,181.8486259460449L842.6419313125,153.4160572052002L844.3160161249999,280.6086072921753L846.971461,234.7783630371094L848.58781875,283.26775608062746L851.9937154375,290.26691646575927L852.9173484375,177.709635925293L854.706887375,403.33249340057375L855.168703875,275.06239490509034L856.3809721875,131.60842628479006L857.82414875,326.3874904632568L858.1127840624999,398.0006778717041L858.863235875,-29.47619743347167L859.6136876875,44.79720878601074L859.9600500625,181.985018157959L862.3845866875,253.5472011566162L862.44231375,143.36269569396973L862.7309490624999,309.4024513244629L863.596855,290.4769618988037L866.945024625,231.82652740478517L867.9263846875,48.304457473754894L869.485015375,218.99638595581055L869.5427424375,278.190712928772L870.0045589375001,273.8067234039307L870.6972836875,287.4567161560059L870.8704648749999,306.5874002456665L871.3900084375,314.84972229003904L872.255914375,246.51743812561034L872.4868226250001,195.2186294555664L873.4681826875,303.3507246017456L874.5072698125,308.6844305038452L875.5463569374999,378.78735237121583L876.412262875,180.51523513793947L876.9895335000001,336.42462329864503L877.1627146875,364.7502254486084L877.8554394375,167.27356300354003L877.9131665,193.45865631103516L878.1440747500001,316.39907932281494L879.7604325,-23.578232955932606L881.261336125,96.32543029785154L883.1663291875,412.5994596481323L884.032235125,284.63635063171387L886.1104093749999,407.86567974090576L886.3990446875,327.06467208862307L889.1699436875,351.07191276550293L889.4008519375,182.08124885559081L890.5553931874999,52.56157798767089L893.38401925,191.07457466125487L894.884922875,201.02121925354004L895.0581040625,138.43431434631347L897.4826406875,231.84379043579102L898.4062736875,127.19522514343262L900.426720875,390.5954439163208L901.2926268125,252.97338371276857L901.7544433125,211.800484085083L902.1008056874999,125.20519714355467L904.00579875,181.84933929443358L904.9871588125001,184.59915466308595L905.16034,388.11135082244874L905.3335211875,374.6090925216675L906.083973,215.96558265686036L907.6426036875,237.6373207092285L908.6816908125,270.7984619140625L909.08578025,83.91031494140623L909.4898696874999,210.26493034362792L910.7598650625,160.2011417388916L911.972133375,260.4877243041992L912.7225851874999,150.4585147857666L914.743032375,227.38300895690918L916.0707548125,145.28595428466795L916.243936,167.15921325683595L916.9943878125,206.99108924865723L917.2252960625,233.41244354248047L917.5716584375,135.31869392395018L920.0539221250001,253.7287483215332L920.1116491875,280.0333988189697L921.2084633750001,-25.547431182861317L921.3816445625,248.32085418701172L921.8434610625,284.358323097229L921.901188125,306.1057830810547L921.9589151875,279.8908004760742L922.3052775624999,290.8328157424927L923.4598188125,31.138441848754894L923.5752729375,224.49273529052735L924.6143600624999,281.28753662109375L927.5007131875,179.7713554382324L928.3088920625,263.7726579666138L928.6552544375,234.3335189819336L930.6179745625001,312.08424892425535L932.984784125,140.39880447387694L934.6011418749999,175.75078125000002L936.1597725624999,211.37361640930175L936.448407875,268.68473930358886L936.79477025,238.41551246643067L938.1224926875,346.76806793212893L939.5656692499999,281.5265796661377L940.258394,328.5400192260742L940.3161210625,158.48760757446288L940.6624834375,246.3846839904785L941.1820270000001,257.3972137451172L942.1633870625001,140.64726371765138L942.8561118125,214.4977970123291L943.2024741874999,119.22170219421386L944.3570154375,292.55309104919434L944.5879236875,312.1265504837036L945.9733731875,260.97807998657225L946.0888273125,171.0101531982422L946.608370875,205.61710891723632L949.494724,251.81825866699216L950.8801735,274.75009098052976L952.2078959375,305.34171562194825L954.228343125,118.45870475769041L954.2860701875,196.38274269104005L955.6715196875,280.86102561950685L955.7869738124999,273.58269634246824L955.844700875,272.5505882263184L957.57651275,253.95901718139646L959.0196893125,206.45108451843262L959.308324625,192.671333694458L960.1742305625,230.31408615112304L960.5205929374999,104.88389892578124L962.2524048125,188.96242141723633L962.310131875,328.626869392395L962.771948375,139.71748542785645L963.0028566249999,228.90764846801758L963.3492190000001,319.159238243103L964.2728520000001,247.42988204956055L966.7551156875,6.191650009155296L967.4478404375,194.6186321258545L968.082838125,182.8329040527344L968.66010875,102.88994750976565L968.7178358125,320.71023597717283L968.9487440625,270.07273693084716L969.1796523125,251.4773494720459L969.4105605625,218.09271621704102L970.391920625,346.8791719436646L970.738283,252.9749530792236L970.96919125,147.29410133361816L971.0846453749999,193.84001235961915L972.5278219375,277.7261447906494L973.624636125,168.9084861755371L974.0287255625,303.4307622909546L974.086452625,343.64973678588865L975.010085625,384.5956846237183L975.1832668125,266.54662017822267L977.0305328124999,346.5019889831543L977.0882598750001,362.01710243225097L977.1459869375001,324.1135498046875L978.5314364375,369.6379816055298L979.3396153125,312.2142210006714L982.2836955,262.118510055542L982.97642025,193.47777404785157L986.6132251875,237.31838264465333L987.1904958125,305.33301277160643L989.0377618125,34.631922912597645L989.2686700625,287.98591365814207L990.4232113125,360.05735607147216L991.8086608125,220.97164764404297L991.9241149375,190.4010311126709L992.905475,262.8128833770752L995.0413763125,114.39347496032713L995.7341010625,172.48307495117186L996.7731881875,359.1990552902222L997.0618235000001,319.30939807891843L997.177277625,106.1396774291992L997.75454825,269.15918731689453L998.793635375,237.81109237670898L999.717268375,283.40265026092527L1000.1213578124999,299.549112701416L1001.1027178749999,218.3612205505371L1001.44908025,235.00007171630858L1001.8531696875,387.89138984680176L1004.566341625,238.95687255859374L1004.8549769374999,299.8736148834229L1005.7786099374999,160.79771499633787L1006.1249723125,325.7484729766846L1006.7022429375,317.5684713363647L1007.1640594375,278.8033721923828L1007.7413300625,231.34965400695802L1008.1454195,278.0590644836426L1008.722690125,315.14137477874755L1008.7804171875,280.13629932403563L1008.83814425,300.70184803009033L1009.5885960625,267.79337482452394L1010.6854102499999,167.6606258392334L1011.8399515,87.67094497680665L1012.4749491875,414.5416219711304L1015.188121125,318.6067142486572L1015.880845875,188.60453453063965L1016.5158435625,193.35258140563965L1018.3631095625,172.9256362915039L1020.2103755625001,219.31403999328614L1021.9999144999999,163.94522209167482L1024.1358158125,348.67392082214354L1025.5212653125,267.0614793777466L1026.040808875,74.44004440307617L1026.38717125,416.2073974609375L1027.2530771875001,204.63440017700196L1028.23443725,373.94953060150146L1029.042616125,344.9740324020386L1029.2157973125,275.8137647628784L1030.3126115,352.13950996398927L1031.4094256875,184.0841884613037L1031.8712421875,352.31959476470945L1036.0275906875,78.2097339630127L1037.93258375,160.65390396118164L1038.39440025,186.42111778259277L1038.7407626250001,255.81415100097655L1040.126212125,172.34825210571287L1040.1839391875,350.91704483032225L1040.5880286249999,318.9539722442627L1042.3775675625,292.1218006134033L1042.7239299375,310.97331581115725L1043.93619825,261.3244819641113L1044.628923,295.4105863571167L1045.6102830625,233.44597091674805L1045.668010125,228.47728538513184" style="fill: none;" fill="none"></path></g></g></g></g></g></g><g transform="translate(28, 374)" clip-path="url(#clip_1)"><clipPath id="clip_1"><rect width="1154" height="25"></rect></clipPath><g><g><line x1="0" y1="0" x2="0" y2="5" style="visibility: inherit;" fill="rgb(0, 0, 0)" stroke="rgb(204, 204, 204)" stroke-width="1px"></line><line x1="115.454125" y1="0" x2="115.454125" y2="5" style="visibility: inherit;" fill="rgb(0, 0, 0)" stroke="rgb(204, 204, 204)" stroke-width="1px"></line><line x1="230.90825" y1="0" x2="230.90825" y2="5" style="visibility: inherit;" fill="rgb(0, 0, 0)" stroke="rgb(204, 204, 204)" stroke-width="1px"></line><line x1="346.362375" y1="0" x2="346.362375" y2="5" style="visibility: inherit;" fill="rgb(0, 0, 0)" stroke="rgb(204, 204, 204)" stroke-width="1px"></line><line x1="461.8165" y1="0" x2="461.8165" y2="5" style="visibility: inherit;" fill="rgb(0, 0, 0)" stroke="rgb(204, 204, 204)" stroke-width="1px"></line><line x1="577.270625" y1="0" x2="577.270625" y2="5" style="visibility: inherit;" fill="rgb(0, 0, 0)" stroke="rgb(204, 204, 204)" stroke-width="1px"></line><line x1="692.72475" y1="0" x2="692.72475" y2="5" style="visibility: inherit;" fill="rgb(0, 0, 0)" stroke="rgb(204, 204, 204)" stroke-width="1px"></line><line x1="808.178875" y1="0" x2="808.178875" y2="5" style="visibility: inherit;" fill="rgb(0, 0, 0)" stroke="rgb(204, 204, 204)" stroke-width="1px"></line><line x1="923.633" y1="0" x2="923.633" y2="5" style="visibility: inherit;" fill="rgb(0, 0, 0)" stroke="rgb(204, 204, 204)" stroke-width="1px"></line><line x1="1039.087125" y1="0" x2="1039.087125" y2="5" style="visibility: inherit;" fill="rgb(0, 0, 0)" stroke="rgb(204, 204, 204)" stroke-width="1px"></line><line x1="1154.54125" y1="0" x2="1154.54125" y2="5" style="visibility: inherit;" fill="rgb(0, 0, 0)" stroke="rgb(204, 204, 204)" stroke-width="1px"></line></g><g transform="translate(0, 8)"><text x="0" y="0" dx="0em" dy="0.95em" style="text-anchor: middle; visibility: hidden; font-family: &quot;Helvetica Neue&quot;, sans-serif; font-size: 12.5px; font-weight: 200;" fill="rgb(50, 49, 63)" stroke="none" stroke-width="1px">-20k</text><text x="115.454125" y="0" dx="0em" dy="0.95em" style="text-anchor: middle; visibility: inherit; font-family: &quot;Helvetica Neue&quot;, sans-serif; font-size: 12.5px; font-weight: 200;" fill="rgb(50, 49, 63)" stroke="none" stroke-width="1px">0</text><text x="230.90825" y="0" dx="0em" dy="0.95em" style="text-anchor: middle; visibility: inherit; font-family: &quot;Helvetica Neue&quot;, sans-serif; font-size: 12.5px; font-weight: 200;" fill="rgb(50, 49, 63)" stroke="none" stroke-width="1px">20k</text><text x="346.362375" y="0" dx="0em" dy="0.95em" style="text-anchor: middle; visibility: inherit; font-family: &quot;Helvetica Neue&quot;, sans-serif; font-size: 12.5px; font-weight: 200;" fill="rgb(50, 49, 63)" stroke="none" stroke-width="1px">40k</text><text x="461.8165" y="0" dx="0em" dy="0.95em" style="text-anchor: middle; visibility: inherit; font-family: &quot;Helvetica Neue&quot;, sans-serif; font-size: 12.5px; font-weight: 200;" fill="rgb(50, 49, 63)" stroke="none" stroke-width="1px">60k</text><text x="577.270625" y="0" dx="0em" dy="0.95em" style="text-anchor: middle; visibility: inherit; font-family: &quot;Helvetica Neue&quot;, sans-serif; font-size: 12.5px; font-weight: 200;" fill="rgb(50, 49, 63)" stroke="none" stroke-width="1px">80k</text><text x="692.72475" y="0" dx="0em" dy="0.95em" style="text-anchor: middle; visibility: inherit; font-family: &quot;Helvetica Neue&quot;, sans-serif; font-size: 12.5px; font-weight: 200;" fill="rgb(50, 49, 63)" stroke="none" stroke-width="1px">100k</text><text x="808.178875" y="0" dx="0em" dy="0.95em" style="text-anchor: middle; visibility: inherit; font-family: &quot;Helvetica Neue&quot;, sans-serif; font-size: 12.5px; font-weight: 200;" fill="rgb(50, 49, 63)" stroke="none" stroke-width="1px">120k</text><text x="923.633" y="0" dx="0em" dy="0.95em" style="text-anchor: middle; visibility: inherit; font-family: &quot;Helvetica Neue&quot;, sans-serif; font-size: 12.5px; font-weight: 200;" fill="rgb(50, 49, 63)" stroke="none" stroke-width="1px">140k</text><text x="1039.087125" y="0" dx="0em" dy="0.95em" style="text-anchor: middle; visibility: inherit; font-family: &quot;Helvetica Neue&quot;, sans-serif; font-size: 12.5px; font-weight: 200;" fill="rgb(50, 49, 63)" stroke="none" stroke-width="1px">160k</text><text x="1154.54125" y="0" dx="0em" dy="0.95em" style="text-anchor: middle; visibility: hidden; font-family: &quot;Helvetica Neue&quot;, sans-serif; font-size: 12.5px; font-weight: 200;" fill="rgb(50, 49, 63)" stroke="none" stroke-width="1px">180k</text></g><line x1="0" y1="0" x2="1154.54125" y2="0" fill="rgb(0, 0, 0)" stroke="rgb(204, 204, 204)" stroke-width="1px"></line></g></g></g></g></svg>